<svg xmlns="http://www.w3.org/2000/svg" viewBox="0 0 500 500"><g id="freepik--Floor--inject-81"><path d="M409,255.09c-88.41-51-231.28-51-319.12,0S2.55,388.9,91,439.94s231.28,51.05,319.12,0S497.45,306.14,409,255.09Z" style="fill:#f5f5f5"></path></g><g id="freepik--Shadows--inject-81"><path d="M58.66,386.86l4.25,2.45a14.14,14.14,0,0,0,12.83.67l62.94-28.11A683.62,683.62,0,0,0,310.93,255l4.36-3.7a3.53,3.53,0,0,0-.52-5.76L310.48,243a14.14,14.14,0,0,0-14.48.2L202.29,301,58.71,380.7A3.54,3.54,0,0,0,58.66,386.86Z" style="fill:#ebebeb"></path><path d="M368.44,330.56c19.06-11,49.86-11,68.8,0s18.84,28.85-.22,39.86-49.87,11-68.81,0S349.37,341.57,368.44,330.56Z" style="fill:#ebebeb"></path><path d="M129.66,433.64c19.06-11,49.87-11,68.8,0s18.84,28.85-.22,39.86-49.87,11-68.81,0S110.59,444.65,129.66,433.64Z" style="fill:#ebebeb"></path></g><g id="freepik--Plants--inject-81"><path d="M324.14,194.64c-24.65,8.07-24.87,24.57-19.31,36.31,1.4,2.38,5.64,3.65,9.33-10.95l-6.47.83,7.54-3.83,2-5.85-6.29.46,8-3.36A118.59,118.59,0,0,1,324.14,194.64Z" style="fill:#BA68C8"></path><path d="M324.14,194.64c-24.65,8.07-24.87,24.57-19.31,36.31,1.4,2.38,5.64,3.65,9.33-10.95l-6.47.83,7.54-3.83,2-5.85-6.29.46,8-3.36A118.59,118.59,0,0,1,324.14,194.64Z" style="opacity:0.2"></path><path d="M324.14,194.64c-24.65,8.07-24.87,24.57-19.31,36.31,1.4,2.38,5.64,3.65,9.33-10.95l-6.47.83,7.54-3.83,2-5.85-6.29.46,8-3.36A118.59,118.59,0,0,1,324.14,194.64Z" style="opacity:0.2"></path><path d="M317.17,198.77c-13,9.86-14.17,21.17-10.5,33C305.37,221.36,304,210.84,317.17,198.77Z" style="fill:#fff"></path><path d="M282.39,211.4c24.3,3.42,27.25,18.74,24,30.6-.91,2.44-4.64,4.34-10.51-8.65l6.17-.3-7.66-2.31-2.8-5.13,5.93-.61-8-1.8A111.41,111.41,0,0,0,282.39,211.4Z" style="fill:#BA68C8"></path><path d="M282.39,211.4c24.3,3.42,27.25,18.74,24,30.6-.91,2.44-4.64,4.34-10.51-8.65l6.17-.3-7.66-2.31-2.8-5.13,5.93-.61-8-1.8A111.41,111.41,0,0,0,282.39,211.4Z" style="opacity:0.2"></path><path d="M282.39,211.4c24.3,3.42,27.25,18.74,24,30.6-.91,2.44-4.64,4.34-10.51-8.65l6.17-.3-7.66-2.31-2.8-5.13,5.93-.61-8-1.8A111.41,111.41,0,0,0,282.39,211.4Z" style="opacity:0.1"></path><path d="M289.57,214.08c13.75,7,16.72,17.36,15.26,29C304.31,233.15,303.87,223.13,289.57,214.08Z" style="fill:#fff"></path><path d="M331.25,217.14C309,217.5,304.6,231,306.18,242c.55,2.31,3.7,4.43,10.44-6.62l-5.52-1,7.16-1.22,3.1-4.31-5.28-1.22,7.4-.73A103.17,103.17,0,0,1,331.25,217.14Z" style="fill:#BA68C8"></path><path d="M324.48,218.75c-13.17,4.8-17,13.78-17,24.41C309.06,234.29,310.58,225.31,324.48,218.75Z" style="fill:#fff"></path><path d="M331.25,217.14C309,217.5,304.6,231,306.18,242c.55,2.31,3.7,4.43,10.44-6.62l-5.52-1,7.16-1.22,3.1-4.31-5.28-1.22,7.4-.73A103.17,103.17,0,0,1,331.25,217.14Z" style="opacity:0.2"></path><path d="M453,318.42l-4.54-3.72c-.27-7.15-.56-14.68.63-21.74s4-14,9-19.1c2.11-2.12,4.73-3.94,7.71-4.28s6.3,1.17,7.33,4-.55,6.15-2.27,8.77c-3.68,5.58-8.06,10.67-11.67,16.31A39.65,39.65,0,0,0,453,318.42Z" style="fill:#BA68C8"></path><path d="M453,319.4l4.53,3.72c3.35-7.08,8-13.63,14.36-18.17a40.54,40.54,0,0,0,6.36-4.89c1.83-2,3.1-4.67,2.57-7.3-.68-3.37-4.26-5.59-7.7-5.61s-6.66,1.72-9.32,3.9C455.58,297.72,450.91,309,453,319.4Z" style="fill:#BA68C8"></path><path d="M453,319.4l4.53,3.72c3.35-7.08,8-13.63,14.36-18.17a40.54,40.54,0,0,0,6.36-4.89c1.83-2,3.1-4.67,2.57-7.3-.68-3.37-4.26-5.59-7.7-5.61s-6.66,1.72-9.32,3.9C455.58,297.72,450.91,309,453,319.4Z" style="opacity:0.30000000000000004"></path><path d="M450.41,316.71h0a.38.38,0,0,1-.38-.4c.18-10.6,2.56-30.18,16.42-42.21a.39.39,0,0,1,.52.59c-5.85,5.08-15.73,17.25-16.16,41.64A.39.39,0,0,1,450.41,316.71Z" style="fill:#fff"></path><path d="M455.16,321.59h0a.39.39,0,0,1-.35-.43c.93-9.53,5.09-22.65,19.63-31.06a.39.39,0,0,1,.39.68c-14.25,8.24-18.33,21.11-19.24,30.46A.39.39,0,0,1,455.16,321.59Z" style="fill:#fff"></path><path d="M43.83,349.59c-2.65-2.22-5.59-4.11-8.08-6.5-1.71-1.64-3.28-3.74-3.16-6.1a5.88,5.88,0,0,1,3.79-4.93,8.9,8.9,0,0,1,6.42.16,19.1,19.1,0,0,1,5.52,3.51A47.1,47.1,0,0,1,64.54,366.8a7.06,7.06,0,0,1-.47,4,3.89,3.89,0,0,1-3.67,2c-3.78-.36-4.25-5.27-5.4-8a40.52,40.52,0,0,0-6.28-10.32A39.71,39.71,0,0,0,43.83,349.59Z" style="fill:#BA68C8"></path><path d="M61.06,368.93a.32.32,0,0,1-.31-.24C59.37,363,53.67,343.84,38,335.41a.32.32,0,0,1,.3-.56c15.88,8.56,21.66,27.95,23,33.69a.33.33,0,0,1-.23.39Z" style="fill:#f0f0f0"></path><path d="M63.92,376.87a9.74,9.74,0,0,1-3.17,6.93,12.6,12.6,0,0,1-6.4,2.41,29.57,29.57,0,0,1-7-.28c-1.15-.15-2.45-.4-2.83-1.71a2.44,2.44,0,0,1,.39-2c.18-.25.37-.5.58-.74a.7.7,0,0,0-.61-1.16,18.26,18.26,0,0,1-2,.14,8.61,8.61,0,0,1-4.38-1A6.81,6.81,0,0,1,36.12,377a2.62,2.62,0,0,1-.27-2.75,2.91,2.91,0,0,1,1.36-.94c.46-.2.92-.38,1.39-.55a.65.65,0,0,0-.09-1.25l-2.2-.45a3.87,3.87,0,0,1-1.73-.65,3.43,3.43,0,0,1-.94-2.73c0-1.32.19-2.63.24-3.95a8.21,8.21,0,0,0-.62-3.87,32.92,32.92,0,0,1,11.53-1.48,8.29,8.29,0,0,1,3.37.75A4.65,4.65,0,0,1,50.44,363a.3.3,0,0,0,.59.05l.82-2.65a1.57,1.57,0,0,1,1.89-1,9.39,9.39,0,0,1,3.43,1.75,5.23,5.23,0,0,1,2,3.55,33.58,33.58,0,0,1,.15,5.76.53.53,0,0,0,.92.39l.05-.06a1.76,1.76,0,0,1,1.15-.6c1.18-.08,1.7,1,2,2A19.5,19.5,0,0,1,63.92,376.87Z" style="fill:#BA68C8"></path><path d="M63.92,376.87a9.74,9.74,0,0,1-3.17,6.93,12.6,12.6,0,0,1-6.4,2.41,29.57,29.57,0,0,1-7-.28c-1.15-.15-2.45-.4-2.83-1.71a2.44,2.44,0,0,1,.39-2c.18-.25.37-.5.58-.74a.7.7,0,0,0-.61-1.16,18.26,18.26,0,0,1-2,.14,8.61,8.61,0,0,1-4.38-1A6.81,6.81,0,0,1,36.12,377a2.62,2.62,0,0,1-.27-2.75,2.91,2.91,0,0,1,1.36-.94c.46-.2.92-.38,1.39-.55a.65.65,0,0,0-.09-1.25l-2.2-.45a3.87,3.87,0,0,1-1.73-.65,3.43,3.43,0,0,1-.94-2.73c0-1.32.19-2.63.24-3.95a8.21,8.21,0,0,0-.62-3.87,32.92,32.92,0,0,1,11.53-1.48,8.29,8.29,0,0,1,3.37.75A4.65,4.65,0,0,1,50.44,363a.3.3,0,0,0,.59.05l.82-2.65a1.57,1.57,0,0,1,1.89-1,9.39,9.39,0,0,1,3.43,1.75,5.23,5.23,0,0,1,2,3.55,33.58,33.58,0,0,1,.15,5.76.53.53,0,0,0,.92.39l.05-.06a1.76,1.76,0,0,1,1.15-.6c1.18-.08,1.7,1,2,2A19.5,19.5,0,0,1,63.92,376.87Z" style="opacity:0.2"></path><path d="M59,383.81a46.42,46.42,0,0,0-4.8-8.27.33.33,0,0,0-.16-.21l-.3-.42a29.52,29.52,0,0,1,1-10.75.32.32,0,0,0-.6-.2,29.53,29.53,0,0,0-1.13,10,42.44,42.44,0,0,0-16.19-13.13.32.32,0,0,0-.42.17.32.32,0,0,0,.16.42A42,42,0,0,1,53.05,375a19.39,19.39,0,0,0-11.13.67.32.32,0,0,0-.18.41.33.33,0,0,0,.3.2l.12,0a18.81,18.81,0,0,1,11.51-.42,45.93,45.93,0,0,1,4.76,8.19.34.34,0,0,0,.3.2l.12,0A.31.31,0,0,0,59,383.81Z" style="fill:#f0f0f0"></path></g><g id="freepik--Ballons--inject-81"><path d="M66.42,223.8a.19.19,0,0,1-.19-.19l-1.46-38.3a.18.18,0,0,1,.18-.2h0a.19.19,0,0,1,.19.18l1.46,38.31a.19.19,0,0,1-.18.2Z" style="fill:#e0e0e0"></path><path d="M79.25,170.75c1.47,10.95-5,20.86-14.51,22.13s-18.36-6.58-19.82-17.54,5-20.86,14.51-22.13S77.79,159.79,79.25,170.75Z" style="fill:#BA68C8"></path><path d="M79.25,170.75c1.47,10.95-5,20.86-14.51,22.13s-18.36-6.58-19.82-17.54,5-20.86,14.51-22.13S77.79,159.79,79.25,170.75Z" style="opacity:0.1"></path><path d="M58.23,166.3c.2-.2.39-.38.6-.56a3.45,3.45,0,0,0,0-5.19l0,0a7.94,7.94,0,0,0-.89-.63,3.49,3.49,0,0,0-4.67,1c-.23.34-.45.69-.66,1a3.45,3.45,0,0,0,1.13,4.7l.37.22A3.53,3.53,0,0,0,58.23,166.3Z" style="fill:#fff;opacity:0.1"></path><path d="M53.35,176.62a15,15,0,0,1,1.28-5.09,2.58,2.58,0,0,0-.82-3.12l-.18-.13a2.61,2.61,0,0,0-4,1.82c0,.18-.06.36-.08.54a22.08,22.08,0,0,0,2.24,12.61c1.69,3.31,4.45,6.31,8,7.24C56,187.34,53,181.57,53.35,176.62Z" style="fill:#fff;opacity:0.1"></path><path d="M66.42,223.8a.19.19,0,0,1-.17-.12l-21-48.39a.2.2,0,0,1,.1-.26.2.2,0,0,1,.25.1l21,48.4a.19.19,0,0,1-.1.25Z" style="fill:#e0e0e0"></path><path d="M66.42,223.8a.24.24,0,0,1-.13-.05L47.05,206.21a.19.19,0,0,1,0-.27.2.2,0,0,1,.28,0l19.24,17.54a.18.18,0,0,1,0,.27A.16.16,0,0,1,66.42,223.8Z" style="fill:#e0e0e0"></path><path d="M54.69,154.62c4.52,11.13.37,23.32-9.27,27.23s-21.1-1.95-25.62-13.08-.36-23.32,9.28-27.23S50.18,143.49,54.69,154.62Z" style="fill:#BA68C8"></path><path d="M54.69,154.62c4.52,11.13.37,23.32-9.27,27.23s-21.1-1.95-25.62-13.08-.36-23.32,9.28-27.23S50.18,143.49,54.69,154.62Z" style="fill:#fff;opacity:0.30000000000000004"></path><path d="M31.37,155.64c.15-.25.31-.5.47-.75a3.73,3.73,0,0,0-1.46-5.44l0,0a9.11,9.11,0,0,0-1.11-.42,3.79,3.79,0,0,0-4.62,2.36c-.15.42-.29.85-.42,1.28a3.76,3.76,0,0,0,2.47,4.64l.44.12A3.85,3.85,0,0,0,31.37,155.64Z" style="fill:#fff;opacity:0.30000000000000004"></path><path d="M29,167.83a16.29,16.29,0,0,1,0-5.7,2.82,2.82,0,0,0-1.72-3.07l-.22-.08a2.84,2.84,0,0,0-3.74,3c0,.2,0,.4.07.59a24,24,0,0,0,5.77,12.67c2.68,3,6.39,5.42,10.43,5.44C34.7,178.4,30,173.13,29,167.83Z" style="fill:#fff;opacity:0.30000000000000004"></path><ellipse cx="33.72" cy="195.5" rx="18.55" ry="21.42" transform="matrix(0.67, -0.75, 0.75, 0.67, -134.67, 90.6)" style="fill:#BA68C8"></ellipse><ellipse cx="33.72" cy="195.5" rx="18.55" ry="21.42" transform="matrix(0.67, -0.75, 0.75, 0.67, -134.67, 90.6)" style="fill:#fff;opacity:0.1"></ellipse><path d="M25.89,192.71q0-.44.09-.87a3.69,3.69,0,0,0-3.66-4.18h0a9.32,9.32,0,0,0-1.16.12,3.74,3.74,0,0,0-3.06,4.1c.05.44.11.87.18,1.31a3.7,3.7,0,0,0,4.2,3l.45-.08A3.8,3.8,0,0,0,25.89,192.71Z" style="fill:#fff;opacity:0.1"></path><path d="M29.12,204.5a15.7,15.7,0,0,1-2.5-5,2.78,2.78,0,0,0-2.85-2l-.24,0a2.8,2.8,0,0,0-2,4.28l.32.49A23.66,23.66,0,0,0,32.47,211c3.68,1.51,8,2,11.58.27C38.74,211.38,32.32,208.75,29.12,204.5Z" style="fill:#fff;opacity:0.1"></path><path d="M300.49,86.79a.16.16,0,0,1-.16-.15l-1.2-31.46a.14.14,0,0,1,.15-.16h0a.15.15,0,0,1,.16.15l1.2,31.46a.15.15,0,0,1-.15.16Z" style="fill:#e0e0e0"></path><path d="M311,43.22c1.21,9-4.13,17.14-11.92,18.18S284,56,282.82,47,287,29.87,294.74,28.82,309.82,34.23,311,43.22Z" style="fill:#BA68C8"></path><path d="M311,43.22c1.21,9-4.13,17.14-11.92,18.18S284,56,282.82,47,287,29.87,294.74,28.82,309.82,34.23,311,43.22Z" style="opacity:0.1"></path><path d="M293.76,39.57l.49-.46a2.83,2.83,0,0,0,0-4.26l0,0a5.57,5.57,0,0,0-.73-.51,2.87,2.87,0,0,0-3.83.85c-.19.28-.37.57-.55.86a2.85,2.85,0,0,0,.94,3.86,3.08,3.08,0,0,0,3.75-.32Z" style="fill:#fff;opacity:0.1"></path><path d="M289.75,48.05a12.25,12.25,0,0,1,1.05-4.18,2.11,2.11,0,0,0-.67-2.56L290,41.2a2.14,2.14,0,0,0-3.3,1.49,3.47,3.47,0,0,0-.06.45,18.07,18.07,0,0,0,1.83,10.35c1.39,2.72,3.65,5.18,6.61,5.95C291.91,56.85,289.49,52.12,289.75,48.05Z" style="fill:#fff;opacity:0.1"></path><path d="M300.49,86.79a.16.16,0,0,1-.15-.1L283.07,47a.16.16,0,0,1,.08-.21.17.17,0,0,1,.21.09l17.27,39.74a.17.17,0,0,1-.08.21Z" style="fill:#e0e0e0"></path><path d="M300.49,86.79a.15.15,0,0,1-.11,0l-15.8-14.41a.15.15,0,0,1,0-.22.16.16,0,0,1,.22,0l15.8,14.4a.16.16,0,0,1-.1.28Z" style="fill:#e0e0e0"></path><ellipse cx="276.53" cy="35.79" rx="15.46" ry="17.86" transform="translate(6.82 106.55) rotate(-22.08)" style="fill:#BA68C8"></ellipse><ellipse cx="276.53" cy="35.79" rx="15.46" ry="17.86" transform="translate(6.82 106.55) rotate(-22.08)" style="fill:#fff;opacity:0.30000000000000004"></ellipse><path d="M271.7,30.82c.12-.21.25-.41.39-.62a3.07,3.07,0,0,0-1.2-4.47h0a7.08,7.08,0,0,0-.91-.34,3.11,3.11,0,0,0-3.8,1.93c-.12.35-.24.7-.34,1.05a3.08,3.08,0,0,0,2,3.81l.37.1A3.14,3.14,0,0,0,271.7,30.82Z" style="fill:#fff;opacity:0.30000000000000004"></path><path d="M269.77,40.83a13.37,13.37,0,0,1,0-4.68,2.31,2.31,0,0,0-1.41-2.52l-.18-.07A2.33,2.33,0,0,0,265.09,36l.06.48a19.62,19.62,0,0,0,4.74,10.4c2.2,2.49,5.25,4.46,8.56,4.47C274.44,49.51,270.6,45.18,269.77,40.83Z" style="fill:#fff;opacity:0.30000000000000004"></path><path d="M283.77,52.18c7.25,6.47,8.59,16.8,3,23.08s-16,6.13-23.27-.34-8.6-16.79-3-23.07S276.51,45.72,283.77,52.18Z" style="fill:#BA68C8"></path><path d="M283.77,52.18c7.25,6.47,8.59,16.8,3,23.08s-16,6.13-23.27-.34-8.6-16.79-3-23.07S276.51,45.72,283.77,52.18Z" style="fill:#fff;opacity:0.1"></path><path d="M267.2,61.26c0-.24,0-.48.07-.71a3,3,0,0,0-3-3.43h0a7.79,7.79,0,0,0-1,.09,3.07,3.07,0,0,0-2.51,3.37c0,.36.09.72.15,1.07a3,3,0,0,0,3.45,2.49l.37-.07A3.12,3.12,0,0,0,267.2,61.26Z" style="fill:#fff;opacity:0.1"></path><path d="M269.85,70.94a13.09,13.09,0,0,1-2.05-4.13,2.29,2.29,0,0,0-2.34-1.61l-.2,0a2.3,2.3,0,0,0-1.64,3.52l.27.4a19.34,19.34,0,0,0,8.71,7.13c3,1.24,6.58,1.66,9.52.22C277.75,76.59,272.48,74.43,269.85,70.94Z" style="fill:#fff;opacity:0.1"></path></g><g id="freepik--Announcement--inject-81"><path d="M61.28,198.68V387.19a1.68,1.68,0,0,0,1,1.38,5.25,5.25,0,0,0,4.76,0,1.65,1.65,0,0,0,1-1.38h0V198.68Z" style="fill:#BA68C8"></path><path d="M67,197.3a5.23,5.23,0,0,0-4.75,0c-1.31.76-1.31,2,0,2.76a5.25,5.25,0,0,0,4.76,0C68.33,199.3,68.33,198.06,67,197.3Z" style="fill:#BA68C8"></path><path d="M67,197.3a5.23,5.23,0,0,0-4.75,0c-1.31.76-1.31,2,0,2.76a5.25,5.25,0,0,0,4.76,0C68.33,199.3,68.33,198.06,67,197.3Z" style="fill:#fff;opacity:0.2"></path><path d="M304.1,58.28V246.79a1.66,1.66,0,0,0,1,1.37,5.17,5.17,0,0,0,4.75,0,1.65,1.65,0,0,0,1-1.37h0V58.28Z" style="fill:#BA68C8"></path><path d="M309.83,56.9a5.25,5.25,0,0,0-4.76,0c-1.31.76-1.3,2,0,2.75a5.23,5.23,0,0,0,4.75,0C311.15,58.89,311.14,57.66,309.83,56.9Z" style="fill:#BA68C8"></path><path d="M309.83,56.9a5.25,5.25,0,0,0-4.76,0c-1.31.76-1.3,2,0,2.75a5.23,5.23,0,0,0,4.75,0C311.15,58.89,311.14,57.66,309.83,56.9Z" style="fill:#fff;opacity:0.2"></path><path d="M64.64,323.15c129.46-47.36,205.26-94.9,246.69-140.64,8.81-9.74-1.8-23.45,0-51.12,1.25-19.28,9.16-40.91,0-56.85,0,0-117.23,93.28-246.69,140.65C78.45,259.84,64.64,323.15,64.64,323.15Z" style="fill:#BA68C8"></path><path d="M64.64,323.15c129.46-47.36,205.26-94.9,246.69-140.64,8.81-9.74-1.8-23.45,0-51.12,1.25-19.28,9.16-40.91,0-56.85,0,0-117.23,93.28-246.69,140.65C78.45,259.84,64.64,323.15,64.64,323.15Z" style="opacity:0.30000000000000004"></path></g><g id="freepik--Text--inject-81"><path d="M122.61,228.77l5.86,11.73-3.86,2.23-1-2.35L118,243.59l-1,3.53-3.79,2.19L119,230.88Zm-3.52,11,3.38-1.95-1.7-3.86-1.68,5.81" style="fill:#e0e0e0"></path><polygon points="141.98 217.58 142.03 232.68 138.97 234.44 133.15 229.73 133.17 237.79 129.54 239.88 129.5 224.79 132.55 223.03 138.37 227.72 138.35 219.68 141.98 217.58" style="fill:#e0e0e0"></polygon><polygon points="157.12 208.85 157.16 223.94 154.1 225.7 148.28 220.99 148.3 229.05 144.66 231.16 144.62 216.06 147.67 214.3 153.49 218.99 153.47 210.95 157.12 208.85" style="fill:#e0e0e0"></polygon><path d="M166.36,203.2c4.21-2.43,7.32-.9,7.33,3.63s-3.07,9.63-7.28,12.06-7.3.89-7.32-3.64S162.17,205.62,166.36,203.2Zm0,12.16a7.62,7.62,0,0,0,3.53-6.36c0-2.61-1.56-3.41-3.56-2.26a7.65,7.65,0,0,0-3.53,6.35c0,2.61,1.57,3.42,3.56,2.27" style="fill:#e0e0e0"></path><path d="M187.86,191.1l0,8.36a11.94,11.94,0,0,1-6.16,10.59c-3.87,2.23-6.17,1-6.18-3.46l0-8.37,3.72-2.14,0,8.23c0,2.59.94,3.09,2.5,2.19s2.48-2.47,2.47-5.06l0-8.23Z" style="fill:#e0e0e0"></path><polygon points="202.87 182.43 202.91 197.52 199.85 199.29 194.03 194.58 194.05 202.64 190.42 204.73 190.38 189.64 193.43 187.88 199.26 192.57 199.23 184.53 202.87 182.43" style="fill:#e0e0e0"></polygon><path d="M212.06,176.82c2.42-1.4,4.36-1.5,5.65-.41l-2.36,3.82a2.55,2.55,0,0,0-3.1,0,7.63,7.63,0,0,0-3.65,6.42c0,2.59,1.52,3.45,3.67,2.21a8.29,8.29,0,0,0,3.1-3.57l2.37,1.09a14.32,14.32,0,0,1-5.64,6.11c-4.17,2.4-7.23.92-7.24-3.68S207.89,179.22,212.06,176.82Z" style="fill:#e0e0e0"></path><polygon points="229.65 166.97 229.66 170.27 223.05 174.09 223.05 176.63 228.88 173.26 228.89 176.45 223.06 179.81 223.07 182.58 229.94 178.61 229.95 181.91 219.41 188 219.36 172.91 229.65 166.97" style="fill:#e0e0e0"></polygon><polygon points="247.21 156.83 247.28 171.91 243.87 173.87 243.81 165.89 240.45 174.36 238.8 175.31 235.42 170.94 235.44 178.74 232.02 180.72 231.98 165.63 235.03 163.86 239.67 169.9 244.14 158.6 247.21 156.83" style="fill:#e0e0e0"></polygon><polygon points="260.17 149.35 260.18 152.65 253.56 156.47 253.57 159.01 259.4 155.64 259.41 158.83 253.58 162.19 253.59 164.96 260.44 161 260.45 164.3 249.92 170.38 249.88 155.29 260.17 149.35" style="fill:#e0e0e0"></polygon><polygon points="274.98 140.8 275.02 155.89 271.97 157.65 266.15 152.94 266.17 161 262.54 163.1 262.49 148 265.55 146.24 271.37 150.93 271.35 142.89 274.98 140.8" style="fill:#e0e0e0"></polygon><polygon points="288.14 133.2 288.15 136.58 284.14 138.89 284.17 150.6 280.46 152.75 280.42 141.04 276.38 143.37 276.37 139.99 288.14 133.2" style="fill:#e0e0e0"></polygon></g><g id="freepik--Confetti--inject-81"><rect x="190.56" y="99.03" width="3.75" height="7.3" transform="translate(-9.73 184.56) rotate(-50.13)" style="fill:#BA68C8"></rect><path d="M227,97.12l-.5,3.78a9,9,0,0,1-7.11-5.54L222.88,94A5.24,5.24,0,0,0,227,97.12Z" style="fill:#BA68C8"></path><rect x="165.17" y="130.16" width="7.41" height="3.8" transform="translate(-18.95 235.41) rotate(-66.85)" style="fill:#BA68C8"></rect><path d="M201.33,179.33l-1,5.64a15.56,15.56,0,0,1-10.85-7.64l5-2.8A9.88,9.88,0,0,0,201.33,179.33Z" style="fill:#BA68C8"></path><rect x="260.91" y="161.88" width="6.23" height="12.14" transform="translate(-36.51 80.79) rotate(-16.29)" style="fill:#BA68C8"></rect><path d="M325.24,178.72l3.67,4.55a10.74,10.74,0,0,1-14.38-1.17l4.36-3.9a4.91,4.91,0,0,0,6.35.52Z" style="fill:#BA68C8"></path><path d="M327.72,90.31l-5.3,2.57a9.6,9.6,0,0,0-6.7-5.11L316.81,82A15.48,15.48,0,0,1,327.72,90.31Z" style="fill:#BA68C8"></path><path d="M306.73,131.23l3.76,5.47a14.21,14.21,0,0,1-16-.15l3.85-5.39a7.59,7.59,0,0,0,8.36.07Z" style="fill:#BA68C8"></path><rect x="252.87" y="67.99" width="5.69" height="11.08" transform="translate(69.39 263.48) rotate(-61.59)" style="fill:#BA68C8"></rect><path d="M229.25,174.2l-1.06,6.15a15.83,15.83,0,0,1-11.58-8.95l5.68-2.58A9.69,9.69,0,0,0,229.25,174.2Z" style="fill:#BA68C8"></path><path d="M96.78,207.12l-6.26,3.18a12.85,12.85,0,0,0-8.11-6.51L84.15,197A19.81,19.81,0,0,1,96.78,207.12Z" style="fill:#BA68C8"></path><path d="M111.46,154.11l.89,5.41a16.52,16.52,0,0,1-12.18-2.83l3.18-4.46A11.06,11.06,0,0,0,111.46,154.11Z" style="fill:#BA68C8"></path><rect x="84.28" y="132.69" width="6.71" height="3.45" transform="translate(-42.79 40.95) rotate(-21.27)" style="fill:#BA68C8"></rect><rect x="101.99" y="108.16" width="3.45" height="6.71" transform="translate(-38.41 166.25) rotate(-68.14)" style="fill:#BA68C8"></rect><path d="M127,69.84,125.73,74a12.32,12.32,0,0,1-7.54-6.52l3.93-1.83A8,8,0,0,0,127,69.84Z" style="fill:#BA68C8"></path><path d="M160.54,71.87,157.68,70a3.73,3.73,0,0,0-.23-4.21l2.63-2.16A7.12,7.12,0,0,1,160.54,71.87Z" style="fill:#BA68C8"></path><path d="M146.15,107.91l.55,5.43a10.46,10.46,0,0,1-10.93-7.71l5.3-1.3a5,5,0,0,0,5.08,3.58Z" style="fill:#BA68C8"></path><rect x="280.04" y="156.27" width="2.86" height="5.58" transform="translate(-41.41 142.41) rotate(-26.52)" style="fill:#BA68C8"></rect><rect x="354.13" y="169.67" width="3.08" height="6" transform="translate(35.57 404.73) rotate(-61.84)" style="fill:#BA68C8"></rect><path d="M372.9,193.82l.43,1.89a5.44,5.44,0,0,1-4.37-.9l1.14-1.56A3.53,3.53,0,0,0,372.9,193.82Z" style="fill:#BA68C8"></path><rect x="372.41" y="210.59" width="5.15" height="2.64" transform="matrix(0.05, -1, 1, 0.05, 144.23, 575.61)" style="fill:#BA68C8"></rect><path d="M338.82,203.3l0,2.58a5.61,5.61,0,0,1-5.07-3.58l2.43-.9A3,3,0,0,0,338.82,203.3Z" style="fill:#BA68C8"></path><rect x="302.81" y="198.79" width="2.11" height="4.11" transform="translate(-38.68 324.69) rotate(-53.34)" style="fill:#BA68C8"></rect><path d="M320.23,213.83l.36,2.22a6,6,0,0,1-5-1.53l1.54-1.64A3.76,3.76,0,0,0,320.23,213.83Z" style="fill:#BA68C8"></path><path d="M275,247.75l-4.24-.45a8.05,8.05,0,0,0-1.93-6.05l3.19-2.82A12.3,12.3,0,0,1,275,247.75Z" style="fill:#BA68C8"></path><path d="M238.12,276.5l-.23,2.21a6,6,0,0,1-4.4-2.71l1.88-1.2A3.82,3.82,0,0,0,238.12,276.5Z" style="fill:#BA68C8"></path><path d="M230.08,253.41l2.2,2a8.26,8.26,0,0,1-6.23,2.72l.06-2.95A5.26,5.26,0,0,0,230.08,253.41Z" style="fill:#BA68C8"></path><rect x="232.59" y="232.41" width="1.79" height="3.49" transform="translate(-45.21 412.13) rotate(-77.64)" style="fill:#BA68C8"></rect><path d="M214.25,216l.21,2.49a5.74,5.74,0,0,1-5.32-2.7l2.14-1.3A3.31,3.31,0,0,0,214.25,216Z" style="fill:#BA68C8"></path><path d="M285.12,182.22l-1.31,2.57a7.05,7.05,0,0,1-3.77-5.66l2.88-.22A4.2,4.2,0,0,0,285.12,182.22Z" style="fill:#BA68C8"></path><rect x="310.99" y="158.36" width="2.21" height="4.3" transform="translate(46.33 389.7) rotate(-67.99)" style="fill:#BA68C8"></rect><path d="M255.71,109.1l-.41,3.58a6.88,6.88,0,0,0-5.16,1.55l-2.33-2.74A10.5,10.5,0,0,1,255.71,109.1Z" style="fill:#BA68C8"></path><path d="M204.27,128.59l.8,3.25a8.3,8.3,0,0,1-7.61-2l2.32-2.42A5,5,0,0,0,204.27,128.59Z" style="fill:#BA68C8"></path><path d="M267.16,131.21l.3,4a9.86,9.86,0,0,1-8.51-3.85l3.17-2.39A5.91,5.91,0,0,0,267.16,131.21Z" style="fill:#BA68C8"></path><path d="M285.38,84.55l-3.67-.43a7.64,7.64,0,0,0-1.49-5.45l2.95-2.24A11.3,11.3,0,0,1,285.38,84.55Z" style="fill:#BA68C8"></path><path d="M239.86,63.44,239,67.27A11.18,11.18,0,0,1,231.75,62l3.4-2A7.34,7.34,0,0,0,239.86,63.44Z" style="fill:#BA68C8"></path><rect x="234.18" y="205.85" width="6.55" height="12.76" transform="translate(-71.15 133.57) rotate(-27.49)" style="fill:#BA68C8"></rect><rect x="368.81" y="368.84" width="6.55" height="12.76" transform="translate(-131.18 214.11) rotate(-27.49)" style="fill:#BA68C8"></rect><path d="M93.63,260.46l-1.8-3a3.32,3.32,0,0,0,1.37-1.71,3.28,3.28,0,0,0,.07-2.18l3.33-1.12a7,7,0,0,1-3,8Z" style="fill:#BA68C8"></path><rect x="83.45" y="280.41" width="4.8" height="9.35" transform="translate(-2.17 0.66) rotate(-0.44)" style="fill:#BA68C8"></rect><path d="M111.77,232.31l.61,2.79a8.25,8.25,0,0,1-6.42-1.27l1.62-2.35A5.41,5.41,0,0,0,111.77,232.31Z" style="fill:#BA68C8"></path><path d="M177.85,198.08l-.78,3.32a9.15,9.15,0,0,1-6.14-5L174,195A5.78,5.78,0,0,0,177.85,198.08Z" style="fill:#BA68C8"></path><path d="M200,233.91l2.72,2.08a8.8,8.8,0,0,1-7.24,3.4l.13-3.42A5.38,5.38,0,0,0,200,233.91Z" style="fill:#BA68C8"></path><path d="M179,267.31l-3.15,3a9.25,9.25,0,0,0-6-2.83l.28-4.33A13.56,13.56,0,0,1,179,267.31Z" style="fill:#BA68C8"></path><path d="M181.33,280.09l3.63,2.14a7.58,7.58,0,0,1-10.1,2.61l2.14-3.63a3.14,3.14,0,0,0,2.38.26A3.19,3.19,0,0,0,181.33,280.09Z" style="fill:#BA68C8"></path><rect x="149.47" y="289.54" width="3.44" height="6.7" transform="translate(-121.33 107.48) rotate(-28.47)" style="fill:#BA68C8"></rect><path d="M120.1,289l.33,3.61a8.43,8.43,0,0,1-7.72-3.77l3-2A4.85,4.85,0,0,0,120.1,289Z" style="fill:#BA68C8"></path><path d="M123.58,323.91l-3.15,1.47a4.36,4.36,0,0,0-3.84-2.43l0-3.47A7.79,7.79,0,0,1,123.58,323.91Z" style="fill:#BA68C8"></path><rect x="139.24" y="314.59" width="5.69" height="2.92" transform="translate(-96.21 64.48) rotate(-19.24)" style="fill:#BA68C8"></rect><rect x="185.33" y="333.7" width="6.12" height="11.92" transform="translate(-189.4 249.5) rotate(-47.56)" style="fill:#BA68C8"></rect><path d="M334.52,55.6l4.11,2.66a13.93,13.93,0,0,1-9.44,6.13l-.76-4.83A9,9,0,0,0,334.52,55.6Z" style="fill:#BA68C8"></path><path d="M316.1,240.9l0,4.85A19.9,19.9,0,0,1,305.87,243l2.48-4.17A15,15,0,0,0,316.1,240.9Z" style="fill:#BA68C8"></path><path d="M362.46,75.86,364,80a14.85,14.85,0,0,1-9.91.14L355.5,76A10.52,10.52,0,0,0,362.46,75.86Z" style="fill:#BA68C8"></path><path d="M298.72,40.37l2.14,4.55A12.18,12.18,0,0,1,289,44l2.8-4.17A7.22,7.22,0,0,0,298.72,40.37Z" style="fill:#BA68C8"></path><path d="M396.6,152.7l-3.56.06a4.8,4.8,0,0,0-2.54-4.06l1.61-3.18A8.27,8.27,0,0,1,396.6,152.7Z" style="fill:#BA68C8"></path><path d="M394.87,190.45l-.07,3a7.71,7.71,0,0,1-6.07-3.27l2.43-1.68A4.75,4.75,0,0,0,394.87,190.45Z" style="fill:#BA68C8"></path><path d="M405.74,121.23l-.68,2.22a4.52,4.52,0,0,1-3.08-4.76l2.3.28A2.23,2.23,0,0,0,405.74,121.23Z" style="fill:#BA68C8"></path><rect x="404.67" y="91.9" width="3.49" height="6.81" transform="translate(-10.82 108.45) rotate(-15)" style="fill:#BA68C8"></rect><path d="M385.66,93.25l.63,3a5.91,5.91,0,0,1-6.6-3.68l2.9-1a2.74,2.74,0,0,0,1.23,1.39A2.78,2.78,0,0,0,385.66,93.25Z" style="fill:#BA68C8"></path><path d="M376.14,44.44l-2.79,4.76a11.08,11.08,0,0,1-4.88-12.51l5.28,1.61a5.57,5.57,0,0,0,2.39,6.14Z" style="fill:#BA68C8"></path><path d="M206.89,64.67,202.11,64a7.16,7.16,0,0,0-2.42-6.26l3.11-3.7A11.94,11.94,0,0,1,206.89,64.67Z" style="fill:#BA68C8"></path><rect x="273.91" y="278.04" width="4.55" height="8.87" transform="translate(-73.55 98.75) rotate(-17.93)" style="fill:#BA68C8"></rect><rect x="305.26" y="279.08" width="2.9" height="5.66" transform="translate(-104.58 348.13) rotate(-51.73)" style="fill:#BA68C8"></rect><rect x="259.91" y="309.36" width="3.23" height="6.29" transform="translate(-97.2 119.19) rotate(-21.76)" style="fill:#BA68C8"></rect><path d="M251.47,355.24l1.5,3.48a8,8,0,0,1-8.95-1.94l2.81-2.55A4.29,4.29,0,0,0,251.47,355.24Z" style="fill:#BA68C8"></path><rect x="271.12" y="352.31" width="2.16" height="4.21" transform="translate(-148.89 204.8) rotate(-32.91)" style="fill:#BA68C8"></rect><path d="M235.8,376.82l-1.05,3a10.5,10.5,0,0,1-5.58-4.6l2.76-1.61A7.35,7.35,0,0,0,235.8,376.82Z" style="fill:#BA68C8"></path><path d="M426.43,329.47l1.5,3.48A8,8,0,0,1,419,331l2.81-2.55A4.29,4.29,0,0,0,426.43,329.47Z" style="fill:#BA68C8"></path><path d="M410.76,351.05l-1.05,3a10.56,10.56,0,0,1-5.59-4.6l2.77-1.62A7.29,7.29,0,0,0,410.76,351.05Z" style="fill:#BA68C8"></path><path d="M225.59,317.68l-.51,3.31a7.13,7.13,0,0,1-5.81-5.59l3.28-.64A3.82,3.82,0,0,0,225.59,317.68Z" style="fill:#BA68C8"></path><rect x="203.43" y="278" width="3.03" height="5.9" transform="translate(-121.76 161.78) rotate(-33.85)" style="fill:#BA68C8"></rect><rect x="221.58" y="349.83" width="5.46" height="2.8" transform="translate(-160.2 511.94) rotate(-80.12)" style="fill:#BA68C8"></rect><path d="M212.34,378.56l-.11,4.52a10,10,0,0,1-8.89-6.18l4.2-1.68A5.53,5.53,0,0,0,212.34,378.56Z" style="fill:#BA68C8"></path><rect x="240.56" y="397.01" width="3.51" height="6.84" transform="translate(-185.23 590.88) rotate(-82.83)" style="fill:#BA68C8"></rect><path d="M278.11,388.82l-2,2.05a6.33,6.33,0,0,1-1.49-6.67l2.67,1A3.51,3.51,0,0,0,278.11,388.82Z" style="fill:#BA68C8"></path><rect x="255.81" y="408.17" width="4.14" height="2.13" transform="translate(-210.54 529.88) rotate(-72.23)" style="fill:#BA68C8"></rect><path d="M318.7,321.9l-.16,3.73a9.46,9.46,0,0,1-7.54-4.46l3.19-1.95A5.73,5.73,0,0,0,318.7,321.9Z" style="fill:#BA68C8"></path><rect x="332.48" y="321.43" width="3.82" height="7.44" transform="translate(-132.02 323.11) rotate(-43.95)" style="fill:#BA68C8"></rect><rect x="334.63" y="350.69" width="5.96" height="3.06" transform="translate(-124.31 509.28) rotate(-64.99)" style="fill:#BA68C8"></rect><path d="M292.25,351.73l2.69,2a6.08,6.08,0,0,1-8.15,1.35l1.91-2.75a2.75,2.75,0,0,0,3.55-.58Z" style="fill:#BA68C8"></path><rect x="313.49" y="376.08" width="3.15" height="6.14" transform="matrix(0.29, -0.96, 0.96, 0.29, -139.69, 569.45)" style="fill:#BA68C8"></rect><path d="M368.89,318.24l2.54,2.29a6.76,6.76,0,0,1-8.25,1.29l1.72-2.95A3.39,3.39,0,0,0,368.89,318.24Z" style="fill:#BA68C8"></path><rect x="378.36" y="311.37" width="2.81" height="5.48" transform="translate(-101.96 418.17) rotate(-51.78)" style="fill:#BA68C8"></rect><path d="M379.14,328.87l4.28.95a7.89,7.89,0,0,1-9.15,5.85l.94-4.29a3.3,3.3,0,0,0,2.44-.51A3.36,3.36,0,0,0,379.14,328.87Z" style="fill:#BA68C8"></path><rect x="357.58" y="295.48" width="5.46" height="2.8" transform="translate(-51.3 76.57) rotate(-11.33)" style="fill:#BA68C8"></rect><rect x="398.96" y="266.96" width="8.81" height="4.52" transform="translate(-29.37 488.14) rotate(-60.55)" style="fill:#BA68C8"></rect><path d="M396.09,257.3l-2.7-2.48a5.84,5.84,0,0,0,1.38-5l3.59-.75A9.5,9.5,0,0,1,396.09,257.3Z" style="fill:#BA68C8"></path><rect x="386.07" y="272.32" width="3.34" height="6.51" transform="translate(-4.52 544.67) rotate(-69.85)" style="fill:#BA68C8"></rect><rect x="405.88" y="205.35" width="3.79" height="7.39" transform="translate(-46.72 267.47) rotate(-34.47)" style="fill:#BA68C8"></rect><rect x="82.9" y="336.8" width="7.11" height="3.65" transform="translate(-232.49 195.74) rotate(-51.55)" style="fill:#BA68C8"></rect><path d="M116,370.82l-5.46,3.11a18,18,0,0,1-1.44-14.38l6,2A11.78,11.78,0,0,0,116,370.82Z" style="fill:#BA68C8"></path><rect x="126.61" y="351.7" width="3.58" height="6.97" transform="translate(-59.21 27.4) rotate(-9.91)" style="fill:#BA68C8"></rect><g style="opacity:0.2"><rect x="190.56" y="99.03" width="3.75" height="7.3" transform="translate(-9.73 184.56) rotate(-50.13)" style="fill:#fff"></rect><path d="M227,97.12l-.5,3.78a9,9,0,0,1-7.11-5.54L222.88,94A5.24,5.24,0,0,0,227,97.12Z" style="fill:#fff"></path><rect x="165.17" y="130.16" width="7.41" height="3.8" transform="translate(-18.95 235.41) rotate(-66.85)" style="fill:#fff"></rect><path d="M201.33,179.33l-1,5.64a15.56,15.56,0,0,1-10.85-7.64l5-2.8A9.88,9.88,0,0,0,201.33,179.33Z" style="fill:#fff"></path><rect x="260.91" y="161.88" width="6.23" height="12.14" transform="translate(-36.51 80.79) rotate(-16.29)" style="fill:#fff"></rect><path d="M325.24,178.72l3.67,4.55a10.74,10.74,0,0,1-14.38-1.17l4.36-3.9a4.91,4.91,0,0,0,6.35.52Z" style="fill:#fff"></path><path d="M327.72,90.31l-5.3,2.57a9.6,9.6,0,0,0-6.7-5.11L316.81,82A15.48,15.48,0,0,1,327.72,90.31Z" style="fill:#fff"></path><path d="M306.73,131.23l3.76,5.47a14.21,14.21,0,0,1-16-.15l3.85-5.39a7.59,7.59,0,0,0,8.36.07Z" style="fill:#fff"></path><rect x="252.87" y="67.99" width="5.69" height="11.08" transform="translate(69.39 263.48) rotate(-61.59)" style="fill:#fff"></rect><path d="M229.25,174.2l-1.06,6.15a15.83,15.83,0,0,1-11.58-8.95l5.68-2.58A9.69,9.69,0,0,0,229.25,174.2Z" style="fill:#fff"></path><path d="M96.78,207.12l-6.26,3.18a12.85,12.85,0,0,0-8.11-6.51L84.15,197A19.81,19.81,0,0,1,96.78,207.12Z" style="fill:#fff"></path><path d="M111.46,154.11l.89,5.41a16.52,16.52,0,0,1-12.18-2.83l3.18-4.46A11.06,11.06,0,0,0,111.46,154.11Z" style="fill:#fff"></path><rect x="84.28" y="132.69" width="6.71" height="3.45" transform="translate(-42.79 40.95) rotate(-21.27)" style="fill:#fff"></rect><rect x="101.99" y="108.16" width="3.45" height="6.71" transform="translate(-38.41 166.25) rotate(-68.14)" style="fill:#fff"></rect><path d="M127,69.84,125.73,74a12.32,12.32,0,0,1-7.54-6.52l3.93-1.83A8,8,0,0,0,127,69.84Z" style="fill:#fff"></path><path d="M160.54,71.87,157.68,70a3.73,3.73,0,0,0-.23-4.21l2.63-2.16A7.12,7.12,0,0,1,160.54,71.87Z" style="fill:#fff"></path><path d="M146.15,107.91l.55,5.43a10.46,10.46,0,0,1-10.93-7.71l5.3-1.3a5,5,0,0,0,5.08,3.58Z" style="fill:#fff"></path><rect x="280.04" y="156.27" width="2.86" height="5.58" transform="translate(-41.41 142.41) rotate(-26.52)" style="fill:#fff"></rect><rect x="354.13" y="169.67" width="3.08" height="6" transform="translate(35.57 404.73) rotate(-61.84)" style="fill:#fff"></rect><path d="M372.9,193.82l.43,1.89a5.44,5.44,0,0,1-4.37-.9l1.14-1.56A3.53,3.53,0,0,0,372.9,193.82Z" style="fill:#fff"></path><rect x="372.41" y="210.59" width="5.15" height="2.64" transform="matrix(0.05, -1, 1, 0.05, 144.23, 575.61)" style="fill:#fff"></rect><path d="M338.82,203.3l0,2.58a5.61,5.61,0,0,1-5.07-3.58l2.43-.9A3,3,0,0,0,338.82,203.3Z" style="fill:#fff"></path><rect x="302.81" y="198.79" width="2.11" height="4.11" transform="translate(-38.68 324.69) rotate(-53.34)" style="fill:#fff"></rect><path d="M320.23,213.83l.36,2.22a6,6,0,0,1-5-1.53l1.54-1.64A3.76,3.76,0,0,0,320.23,213.83Z" style="fill:#fff"></path><path d="M275,247.75l-4.24-.45a8.05,8.05,0,0,0-1.93-6.05l3.19-2.82A12.3,12.3,0,0,1,275,247.75Z" style="fill:#fff"></path><path d="M238.12,276.5l-.23,2.21a6,6,0,0,1-4.4-2.71l1.88-1.2A3.82,3.82,0,0,0,238.12,276.5Z" style="fill:#fff"></path><path d="M230.08,253.41l2.2,2a8.26,8.26,0,0,1-6.23,2.72l.06-2.95A5.26,5.26,0,0,0,230.08,253.41Z" style="fill:#fff"></path><rect x="232.59" y="232.41" width="1.79" height="3.49" transform="translate(-45.21 412.13) rotate(-77.64)" style="fill:#fff"></rect><path d="M214.25,216l.21,2.49a5.74,5.74,0,0,1-5.32-2.7l2.14-1.3A3.31,3.31,0,0,0,214.25,216Z" style="fill:#fff"></path><path d="M285.12,182.22l-1.31,2.57a7.05,7.05,0,0,1-3.77-5.66l2.88-.22A4.2,4.2,0,0,0,285.12,182.22Z" style="fill:#fff"></path><rect x="310.99" y="158.36" width="2.21" height="4.3" transform="translate(46.33 389.7) rotate(-67.99)" style="fill:#fff"></rect><path d="M255.71,109.1l-.41,3.58a6.88,6.88,0,0,0-5.16,1.55l-2.33-2.74A10.5,10.5,0,0,1,255.71,109.1Z" style="fill:#fff"></path><path d="M204.27,128.59l.8,3.25a8.3,8.3,0,0,1-7.61-2l2.32-2.42A5,5,0,0,0,204.27,128.59Z" style="fill:#fff"></path><path d="M267.16,131.21l.3,4a9.86,9.86,0,0,1-8.51-3.85l3.17-2.39A5.91,5.91,0,0,0,267.16,131.21Z" style="fill:#fff"></path><path d="M285.38,84.55l-3.67-.43a7.64,7.64,0,0,0-1.49-5.45l2.95-2.24A11.3,11.3,0,0,1,285.38,84.55Z" style="fill:#fff"></path><path d="M239.86,63.44,239,67.27A11.18,11.18,0,0,1,231.75,62l3.4-2A7.34,7.34,0,0,0,239.86,63.44Z" style="fill:#fff"></path><rect x="234.18" y="205.85" width="6.55" height="12.76" transform="translate(-71.15 133.57) rotate(-27.49)" style="fill:#fff"></rect><rect x="368.81" y="368.84" width="6.55" height="12.76" transform="translate(-131.18 214.11) rotate(-27.49)" style="fill:#fff"></rect><path d="M93.63,260.46l-1.8-3a3.32,3.32,0,0,0,1.37-1.71,3.28,3.28,0,0,0,.07-2.18l3.33-1.12a7,7,0,0,1-3,8Z" style="fill:#fff"></path><rect x="83.45" y="280.41" width="4.8" height="9.35" transform="translate(-2.17 0.66) rotate(-0.44)" style="fill:#fff"></rect><path d="M111.77,232.31l.61,2.79a8.25,8.25,0,0,1-6.42-1.27l1.62-2.35A5.41,5.41,0,0,0,111.77,232.31Z" style="fill:#fff"></path><path d="M177.85,198.08l-.78,3.32a9.15,9.15,0,0,1-6.14-5L174,195A5.78,5.78,0,0,0,177.85,198.08Z" style="fill:#fff"></path><path d="M200,233.91l2.72,2.08a8.8,8.8,0,0,1-7.24,3.4l.13-3.42A5.38,5.38,0,0,0,200,233.91Z" style="fill:#fff"></path><path d="M179,267.31l-3.15,3a9.25,9.25,0,0,0-6-2.83l.28-4.33A13.56,13.56,0,0,1,179,267.31Z" style="fill:#fff"></path><path d="M181.33,280.09l3.63,2.14a7.58,7.58,0,0,1-10.1,2.61l2.14-3.63a3.14,3.14,0,0,0,2.38.26A3.19,3.19,0,0,0,181.33,280.09Z" style="fill:#fff"></path><rect x="149.47" y="289.54" width="3.44" height="6.7" transform="translate(-121.33 107.48) rotate(-28.47)" style="fill:#fff"></rect><path d="M120.1,289l.33,3.61a8.43,8.43,0,0,1-7.72-3.77l3-2A4.85,4.85,0,0,0,120.1,289Z" style="fill:#fff"></path><path d="M123.58,323.91l-3.15,1.47a4.36,4.36,0,0,0-3.84-2.43l0-3.47A7.79,7.79,0,0,1,123.58,323.91Z" style="fill:#fff"></path><rect x="139.24" y="314.59" width="5.69" height="2.92" transform="translate(-96.21 64.48) rotate(-19.24)" style="fill:#fff"></rect><rect x="185.33" y="333.7" width="6.12" height="11.92" transform="translate(-189.4 249.5) rotate(-47.56)" style="fill:#fff"></rect><path d="M334.52,55.6l4.11,2.66a13.93,13.93,0,0,1-9.44,6.13l-.76-4.83A9,9,0,0,0,334.52,55.6Z" style="fill:#fff"></path><path d="M316.1,240.9l0,4.85A19.9,19.9,0,0,1,305.87,243l2.48-4.17A15,15,0,0,0,316.1,240.9Z" style="fill:#fff"></path><path d="M362.46,75.86,364,80a14.85,14.85,0,0,1-9.91.14L355.5,76A10.52,10.52,0,0,0,362.46,75.86Z" style="fill:#fff"></path><path d="M298.72,40.37l2.14,4.55A12.18,12.18,0,0,1,289,44l2.8-4.17A7.22,7.22,0,0,0,298.72,40.37Z" style="fill:#fff"></path><path d="M396.6,152.7l-3.56.06a4.8,4.8,0,0,0-2.54-4.06l1.61-3.18A8.27,8.27,0,0,1,396.6,152.7Z" style="fill:#fff"></path><path d="M394.87,190.45l-.07,3a7.71,7.71,0,0,1-6.07-3.27l2.43-1.68A4.75,4.75,0,0,0,394.87,190.45Z" style="fill:#fff"></path><path d="M405.74,121.23l-.68,2.22a4.52,4.52,0,0,1-3.08-4.76l2.3.28A2.23,2.23,0,0,0,405.74,121.23Z" style="fill:#fff"></path><rect x="404.67" y="91.9" width="3.49" height="6.81" transform="translate(-10.82 108.45) rotate(-15)" style="fill:#fff"></rect><path d="M385.66,93.25l.63,3a5.91,5.91,0,0,1-6.6-3.68l2.9-1a2.74,2.74,0,0,0,1.23,1.39A2.78,2.78,0,0,0,385.66,93.25Z" style="fill:#fff"></path><path d="M376.14,44.44l-2.79,4.76a11.08,11.08,0,0,1-4.88-12.51l5.28,1.61a5.57,5.57,0,0,0,2.39,6.14Z" style="fill:#fff"></path><path d="M206.89,64.67,202.11,64a7.16,7.16,0,0,0-2.42-6.26l3.11-3.7A11.94,11.94,0,0,1,206.89,64.67Z" style="fill:#fff"></path><rect x="273.91" y="278.04" width="4.55" height="8.87" transform="translate(-73.55 98.75) rotate(-17.93)" style="fill:#fff"></rect><rect x="305.26" y="279.08" width="2.9" height="5.66" transform="translate(-104.58 348.13) rotate(-51.73)" style="fill:#fff"></rect><rect x="259.91" y="309.36" width="3.23" height="6.29" transform="translate(-97.2 119.19) rotate(-21.76)" style="fill:#fff"></rect><path d="M251.47,355.24l1.5,3.48a8,8,0,0,1-8.95-1.94l2.81-2.55A4.29,4.29,0,0,0,251.47,355.24Z" style="fill:#fff"></path><rect x="271.12" y="352.31" width="2.16" height="4.21" transform="translate(-148.89 204.8) rotate(-32.91)" style="fill:#fff"></rect><path d="M235.8,376.82l-1.05,3a10.5,10.5,0,0,1-5.58-4.6l2.76-1.61A7.35,7.35,0,0,0,235.8,376.82Z" style="fill:#fff"></path><path d="M426.43,329.47l1.5,3.48A8,8,0,0,1,419,331l2.81-2.55A4.29,4.29,0,0,0,426.43,329.47Z" style="fill:#fff"></path><path d="M410.76,351.05l-1.05,3a10.56,10.56,0,0,1-5.59-4.6l2.77-1.62A7.29,7.29,0,0,0,410.76,351.05Z" style="fill:#fff"></path><path d="M225.59,317.68l-.51,3.31a7.13,7.13,0,0,1-5.81-5.59l3.28-.64A3.82,3.82,0,0,0,225.59,317.68Z" style="fill:#fff"></path><rect x="203.43" y="278" width="3.03" height="5.9" transform="translate(-121.76 161.78) rotate(-33.85)" style="fill:#fff"></rect><rect x="221.58" y="349.83" width="5.46" height="2.8" transform="translate(-160.2 511.94) rotate(-80.12)" style="fill:#fff"></rect><path d="M212.34,378.56l-.11,4.52a10,10,0,0,1-8.89-6.18l4.2-1.68A5.53,5.53,0,0,0,212.34,378.56Z" style="fill:#fff"></path><rect x="240.56" y="397.01" width="3.51" height="6.84" transform="translate(-185.23 590.88) rotate(-82.83)" style="fill:#fff"></rect><path d="M278.11,388.82l-2,2.05a6.33,6.33,0,0,1-1.49-6.67l2.67,1A3.51,3.51,0,0,0,278.11,388.82Z" style="fill:#fff"></path><rect x="255.81" y="408.17" width="4.14" height="2.13" transform="translate(-210.54 529.88) rotate(-72.23)" style="fill:#fff"></rect><path d="M318.7,321.9l-.16,3.73a9.46,9.46,0,0,1-7.54-4.46l3.19-1.95A5.73,5.73,0,0,0,318.7,321.9Z" style="fill:#fff"></path><rect x="332.48" y="321.43" width="3.82" height="7.44" transform="translate(-132.02 323.11) rotate(-43.95)" style="fill:#fff"></rect><rect x="334.63" y="350.69" width="5.96" height="3.06" transform="translate(-124.31 509.28) rotate(-64.99)" style="fill:#fff"></rect><path d="M292.25,351.73l2.69,2a6.08,6.08,0,0,1-8.15,1.35l1.91-2.75a2.75,2.75,0,0,0,3.55-.58Z" style="fill:#fff"></path><rect x="313.49" y="376.08" width="3.15" height="6.14" transform="matrix(0.29, -0.96, 0.96, 0.29, -139.69, 569.45)" style="fill:#fff"></rect><path d="M368.89,318.24l2.54,2.29a6.76,6.76,0,0,1-8.25,1.29l1.72-2.95A3.39,3.39,0,0,0,368.89,318.24Z" style="fill:#fff"></path><rect x="378.36" y="311.37" width="2.81" height="5.48" transform="translate(-101.96 418.17) rotate(-51.78)" style="fill:#fff"></rect><path d="M379.14,328.87l4.28.95a7.89,7.89,0,0,1-9.15,5.85l.94-4.29a3.3,3.3,0,0,0,2.44-.51A3.36,3.36,0,0,0,379.14,328.87Z" style="fill:#fff"></path><rect x="357.58" y="295.48" width="5.46" height="2.8" transform="translate(-51.3 76.57) rotate(-11.33)" style="fill:#fff"></rect><rect x="398.96" y="266.96" width="8.81" height="4.52" transform="translate(-29.37 488.14) rotate(-60.55)" style="fill:#fff"></rect><path d="M396.09,257.3l-2.7-2.48a5.84,5.84,0,0,0,1.38-5l3.59-.75A9.5,9.5,0,0,1,396.09,257.3Z" style="fill:#fff"></path><rect x="386.07" y="272.32" width="3.34" height="6.51" transform="translate(-4.52 544.67) rotate(-69.85)" style="fill:#fff"></rect><rect x="405.88" y="205.35" width="3.79" height="7.39" transform="translate(-46.72 267.47) rotate(-34.47)" style="fill:#fff"></rect><rect x="82.9" y="336.8" width="7.11" height="3.65" transform="translate(-232.49 195.74) rotate(-51.55)" style="fill:#fff"></rect><path d="M116,370.82l-5.46,3.11a18,18,0,0,1-1.44-14.38l6,2A11.78,11.78,0,0,0,116,370.82Z" style="fill:#fff"></path><rect x="126.61" y="351.7" width="3.58" height="6.97" transform="translate(-59.21 27.4) rotate(-9.91)" style="fill:#fff"></rect></g></g><g id="freepik--character-2--inject-81"><path d="M411.28,159.45l1.3.19a17,17,0,0,1,13.55,11.29l9,26.29-10.66,4.88-9-19.75Z" style="fill:#b36766"></path><path d="M411.28,159.45c7.51.89,12.35,3.62,16,13.73,1.33,3.37,2.73,7.59,2.73,7.59-5.46,7.87-12.45,7.41-12.45,7.41l-4.6-9.94Z" style="fill:#455a64"></path><path d="M422.26,180.17a19.25,19.25,0,0,0-1.72-7.19,15.19,15.19,0,0,0-5.33-5.56,30.74,30.74,0,0,0-3.37-1.87L413,178.24l4.6,9.94a12.07,12.07,0,0,0,4.79-1A58.61,58.61,0,0,0,422.26,180.17Z" style="opacity:0.2"></path><path d="M373.9,352.17a6.69,6.69,0,0,0,5.65,1,6.34,6.34,0,0,0,3.89-3.75,12.37,12.37,0,0,0,.78-3.8,12.58,12.58,0,0,1-.6,5.21,7,7,0,0,1-2.24,3.33,8.89,8.89,0,0,1-8.08-.12c-1.75-1.15-1.74-3.62-2.09-5.47A7.39,7.39,0,0,0,373.9,352.17Z" style="fill:#fff"></path><path d="M384,347.15a9.9,9.9,0,0,1-.6,2.24,6.34,6.34,0,0,1-3.89,3.75,6.69,6.69,0,0,1-5.65-1,7.39,7.39,0,0,1-2.69-3.63,6.48,6.48,0,0,1-.1-.77c0-.25,0-.49,0-.73a10.42,10.42,0,0,1,6.77-2.23A10.27,10.27,0,0,1,384,347.15Z" style="fill:#fff"></path><path d="M372.17,341.52a36.94,36.94,0,0,0,1.79-6.16c.4-2.61.08-5.45,1.8-7.66a6.11,6.11,0,0,1,2.07-.34c1.64.2,3.44.46,5.08.65a6.48,6.48,0,0,1,.77,5.42c-1.05,3.34.17,7.12.44,10.57,0,.53.08,1.06.1,1.59s-.1,1-.18,1.56a10.27,10.27,0,0,0-6.2-2.34,10.42,10.42,0,0,0-6.77,2.23A17.43,17.43,0,0,1,372.17,341.52Z" style="fill:#455a64"></path><path d="M382.12,344.27a.59.59,0,0,0,.51-.27.47.47,0,0,0-.24-.68,11.81,11.81,0,0,0-8.73-.37.48.48,0,0,0-.31.66.61.61,0,0,0,.75.28,10.44,10.44,0,0,1,7.75.32A.63.63,0,0,0,382.12,344.27Z" style="fill:#fff"></path><path d="M381.89,341.45a.62.62,0,0,0,.52-.27.48.48,0,0,0-.24-.69,11.21,11.21,0,0,0-8.29-.35.49.49,0,0,0-.31.66.61.61,0,0,0,.76.28,9.78,9.78,0,0,1,7.29.31A.66.66,0,0,0,381.89,341.45Z" style="fill:#fff"></path><path d="M381.89,338.84a.62.62,0,0,0,.52-.27.47.47,0,0,0-.24-.68,10.43,10.43,0,0,0-7.73-.33.49.49,0,0,0-.31.66.61.61,0,0,0,.75.28,9.08,9.08,0,0,1,6.74.28A.66.66,0,0,0,381.89,338.84Z" style="fill:#fff"></path><path d="M381.89,336a.62.62,0,0,0,.52-.27.47.47,0,0,0-.24-.68,9.41,9.41,0,0,0-7-.29.48.48,0,0,0-.31.66.6.6,0,0,0,.75.27,8.05,8.05,0,0,1,6,.25A.66.66,0,0,0,381.89,336Z" style="fill:#fff"></path><path d="M404.18,330.63a6.29,6.29,0,0,0,0-2.55,1.37,1.37,0,0,1,.19-1.13l.33-.32.15,1.32a1.57,1.57,0,0,0,.94.81,1.55,1.55,0,0,0,1.93-1l0-.1a4,4,0,0,1,3.54-2.63L413,325a1.21,1.21,0,0,1,1.19.74,23.35,23.35,0,0,0,4.69,6.87,28.14,28.14,0,0,0,3,2.79c.48.38,1,.72,1.46,1.07.11.07.19.14.28.19a8.85,8.85,0,0,0-8.65,6.69c-3.81-1.86-3.08-4.72-6.81-6.28a13.18,13.18,0,0,1-3.92-2.5A14.13,14.13,0,0,1,404.18,330.63Z" style="fill:#455a64"></path><path d="M418.55,338.15a9.1,9.1,0,0,1,5-1.51,2.12,2.12,0,0,0,.5.25l1.11.43a10.75,10.75,0,0,1,1.68.88,6.06,6.06,0,0,1,1.51,1.39,4.15,4.15,0,0,1,.52.88,1.83,1.83,0,0,1,.16.86c-2.75,4.41-9.37,4.05-13.69,2.2-.16-.06-.29-.14-.44-.2A9,9,0,0,1,418.55,338.15Z" style="fill:#fff"></path><path d="M418.38,214.93l-40.48.66a354,354,0,0,0-.25,65.39c-6.58,16.39-3.72,24.13-2.95,38.9l.8,8.26-.24,1.85a3.23,3.23,0,0,0,.46,2.11l0,.08.11-1.67a1.05,1.05,0,0,1,.95-.93,10.73,10.73,0,0,1,5.11.25,1,1,0,0,1,.63.9v1.45a3.33,3.33,0,0,0,.72-2.05v-1.59l1.37-8.88h0l7.88-37.27,5.4-35.21,3.12,34.3c-1.59,8.89-2.61,18.44,2,33.41L404.83,328a1.57,1.57,0,0,0,.94.81,1.55,1.55,0,0,0,1.93-1l0-.1a4,4,0,0,1,3.54-2.63l1.65-.09s0-.87,0-2.1l4.54-43.51Z" style="fill:#b36766"></path><path d="M415.35,343.53c4.32,1.85,10.94,2.21,13.69-2.2v1.19c-2.75,4.41-9.37,4.05-13.69,2.21s-3.38-4.87-7.25-6.49a10.49,10.49,0,0,1-3.79-2.38c0-.36-.07-.8-.13-1.31a13.18,13.18,0,0,0,3.92,2.5C412,338.67,411,341.69,415.35,343.53Z" style="fill:#fff"></path><path d="M412.55,334a.55.55,0,0,1-.86-.68,6.27,6.27,0,0,1,5.65-2.48l.71.84A6.06,6.06,0,0,0,412.55,334Z" style="fill:#fff"></path><path d="M410.84,332.14a.54.54,0,0,1-.76.06.53.53,0,0,1-.09-.75,6.57,6.57,0,0,1,5.89-2.54l.65.92A6.1,6.1,0,0,0,410.84,332.14Z" style="fill:#fff"></path><path d="M414.32,335.91a.55.55,0,0,1-.85-.69,6.26,6.26,0,0,1,5.49-2.49c.28.3.56.58.85.86A6.05,6.05,0,0,0,414.32,335.91Z" style="fill:#fff"></path><path d="M416.14,337.69a.55.55,0,0,1-.85-.69,6.28,6.28,0,0,1,5.51-2.49c.35.31.69.6,1,.87A6.12,6.12,0,0,0,416.14,337.69Z" style="fill:#fff"></path><path d="M374.85,220.91c-3.15,15.1-3.54,37.54-2.35,50.51a20.78,20.78,0,0,0,22.65,4l2.5-25,.8,24c11.25,6.82,21.93-1.14,22.72-3.29l-2.87-50.23Z" style="fill:#BA68C8"></path><path d="M374.85,220.91c-3.15,15.1-3.54,37.54-2.35,50.51a20.78,20.78,0,0,0,22.65,4l2.5-25,.8,24c11.25,6.82,21.93-1.14,22.72-3.29l-2.87-50.23Z" style="opacity:0.30000000000000004"></path><path d="M374.48,237.73a16.3,16.3,0,0,0,16.29-12,80.63,80.63,0,0,0-14.48-2.41A34.78,34.78,0,0,0,374.48,237.73Z" style="opacity:0.2"></path><path d="M399.55,239.24l-1.9,11.16.57,17L401.59,242c6.87-2.69,7.77-6.47,7.77-6.47A21.15,21.15,0,0,1,399.55,239.24Z" style="opacity:0.30000000000000004"></path><path d="M418.58,225.92h0l-.28-5H374.85c-.49,2.37-.92,4.92-1.28,7.58C386.06,235.44,404.69,233,418.58,225.92Z" style="opacity:0.30000000000000004"></path><path d="M370.4,252.6a83.38,83.38,0,0,0,.12,11.07s9.59,3.81,11,4,1.84-.51,1.84-.51l.39-14.91-1.49.42-11.39-3.78Z" style="fill:#BA68C8"></path><path d="M370.4,252.6a83.38,83.38,0,0,0,.12,11.07s9.59,3.81,11,4,1.84-.51,1.84-.51l.39-14.91-1.49.42-11.39-3.78Z" style="opacity:0.2"></path><path d="M383.74,252.22a71.13,71.13,0,0,1-12-4c-.39.14-.83.25-1.22.39-.08,1.66-.21,2.72-.3,4.28a1.54,1.54,0,0,0,.2.84,45.67,45.67,0,0,0,2.44,4,2.3,2.3,0,0,0,2.36.88c1.89-.41,3.78-.85,5.68-1.27A1.47,1.47,0,0,0,382,256c.08-1.12.19-2.24.23-3.38A13.15,13.15,0,0,0,383.74,252.22Z" style="fill:#BA68C8"></path><path d="M383.74,252.22a71.13,71.13,0,0,1-12-4c-.39.14-.83.25-1.22.39-.08,1.66-.21,2.72-.3,4.28a1.54,1.54,0,0,0,.2.84,45.67,45.67,0,0,0,2.44,4,2.3,2.3,0,0,0,2.36.88c1.89-.41,3.78-.85,5.68-1.27A1.47,1.47,0,0,0,382,256c.08-1.12.19-2.24.23-3.38A13.15,13.15,0,0,0,383.74,252.22Z" style="opacity:0.30000000000000004"></path><path d="M374.92,256.51c0,.65-.38,1.18-.86,1.18s-.87-.53-.87-1.18.39-1.18.87-1.18S374.92,255.86,374.92,256.51Z" style="fill:#37474f"></path><path d="M382.25,252.64l-.33,15a1.7,1.7,0,0,0,1.43-.53l.39-14.91Z" style="opacity:0.2"></path><path d="M371.7,248.22c-.39.14-.83.25-1.22.39,3.35,2.83,8.63,3.95,11.77,4a13.15,13.15,0,0,0,1.49-.42A71.13,71.13,0,0,1,371.7,248.22Z" style="opacity:0.2"></path><path d="M366.59,156.56c1.52-8.83,13.22-10,16.26-6.47C385.09,160.4,370.08,162.15,366.59,156.56Z" style="fill:#37474f"></path><path d="M430.2,182.79l-5.35,13.13c-1-7.1.88-10.45,5.19-13.58Z" style="fill:#964c4c"></path><path d="M411.28,159.45c6.17,5.44,9.36,16.85,8,29.46s.27,35.63.27,35.63c-16.93,7.73-38,6.2-47.08,1,0,0,2.77-16.47,2.77-21.19,0-8.49-.72-20.25-1.75-25.76C367.08,144.11,411.28,159.45,411.28,159.45Z" style="fill:#455a64"></path><path d="M417.46,126a4.43,4.43,0,0,0-3.6-3.26,4.53,4.53,0,0,0-8.05-3.58,3,3,0,0,0-4.8-.45,5.39,5.39,0,0,0-9.12,4.13,5.32,5.32,0,0,0-5.32,7.55,2.35,2.35,0,0,0-.07,4.44,3,3,0,0,0,2.1,4.9c.6,0,1.2.06,1.8.07a5.25,5.25,0,0,1,1.2,2.47,19.69,19.69,0,0,1,.31,2.86,35.41,35.41,0,0,0,.78,5,6.36,6.36,0,0,0,3.21,4.28l.12.07a19.08,19.08,0,0,0,7.51,2,16.94,16.94,0,0,0,8.19-1.15c3.67-1.78,3.38-7.18,3-15.66a8.77,8.77,0,0,0,.74-4.74,3,3,0,0,0,.26-4.42A4.42,4.42,0,0,0,417.46,126Z" style="fill:#37474f"></path><path d="M413.5,131.29a2.56,2.56,0,0,1-1.31,1.05,2.62,2.62,0,0,1-2.48-.48,1.81,1.81,0,0,1-1.38.52,1.86,1.86,0,0,1-1.34-.69,3.41,3.41,0,0,1-5.66.1,1.55,1.55,0,0,1-1.25.51,1.62,1.62,0,0,1-1.18-.72,2.15,2.15,0,0,1-1.91.91,2.09,2.09,0,0,1-1.09-.41,8.85,8.85,0,0,1-.47,4,34.79,34.79,0,0,0-1.42,4.63,7.64,7.64,0,0,0,.61,4.67,5.42,5.42,0,0,0,3.58,2.9c2.41.52,4.76-.91,7.18-1.38a9.88,9.88,0,0,1,6.74,1.21,1.17,1.17,0,0,0,1.77-1C414.17,142.39,414.17,135,413.5,131.29Z" style="fill:#b36766"></path><polygon points="393.44 153.12 393.44 153.12 393.45 153.13 393.44 153.12" style="fill:#b36766"></polygon><path d="M391.49,147.57s0,2,.09,4.34a6.86,6.86,0,0,1-2.09-3.29A3.07,3.07,0,0,0,391.49,147.57Z" style="fill:#37474f"></path><polygon points="406.05 139.97 410.13 145 406.38 146.34 406.05 139.97" style="fill:#f28f8f"></polygon><polygon points="406.05 139.97 410.13 145 406.38 146.34 406.05 139.97" style="fill:#964c4c"></polygon><path d="M402.06,148.26l4.94,1.55a3,3,0,0,1-3.33,1.55C402.46,151,401.91,149.53,402.06,148.26Z" style="fill:#f28f8f"></path><path d="M402.06,148.26l4.94,1.55a3,3,0,0,1-3.33,1.55C402.46,151,401.91,149.53,402.06,148.26Z" style="fill:#964c4c"></path><path d="M405.29,151.26a2.74,2.74,0,0,1-1.62.1,2.5,2.5,0,0,1-1.6-2.26,2.89,2.89,0,0,1,1.91.35A3,3,0,0,1,405.29,151.26Z" style="fill:#f28f8f"></path><path d="M400.48,141.07a1.13,1.13,0,1,0,1.06-1.2A1.14,1.14,0,0,0,400.48,141.07Z" style="fill:#263238"></path><path d="M409.88,140.19a1.12,1.12,0,1,0,1.06-1.2A1.13,1.13,0,0,0,409.88,140.19Z" style="fill:#263238"></path><path d="M410.73,135.6l2.58,1.61a1.64,1.64,0,0,0-.58-1.76A1.89,1.89,0,0,0,410.73,135.6Z" style="fill:#263238"></path><path d="M401.12,136l-2.39,1.88a1.62,1.62,0,0,1,.39-1.81A1.85,1.85,0,0,1,401.12,136Z" style="fill:#263238"></path><path d="M385.75,140.67A3.16,3.16,0,0,1,387.3,139a2,2,0,0,1,.46-.17,2.87,2.87,0,0,1,2.58.87,5.09,5.09,0,0,1,1.26,2.54,19.69,19.69,0,0,1,.31,2.86,35.46,35.46,0,0,0,.8,5.14,6.33,6.33,0,0,0,3.2,4.17l.11.06a19.08,19.08,0,0,0,7.51,2v4.65a4.23,4.23,0,0,1-.83,2.52h0a4.25,4.25,0,0,1-5.59,1.14l-4.18-2.48a2.54,2.54,0,0,1-1.26-2.16c0-.73-.05-7-.08-8.27-.05-2.36-.09-4.34-.09-4.34a3.07,3.07,0,0,1-2,1.05,2.63,2.63,0,0,1-1.05-.05,4,4,0,0,1-2.33-2,7.58,7.58,0,0,1-.74-3.08A6.17,6.17,0,0,1,385.75,140.67Z" style="fill:#b36766"></path><path d="M394.51,154.33a7.21,7.21,0,0,1-1.31-2.75,6.38,6.38,0,0,0,2.71,2.85l.11.06a19.08,19.08,0,0,0,7.51,2v2a18.69,18.69,0,0,1-4.44-.94A10,10,0,0,1,394.51,154.33Z" style="opacity:0.2"></path><path d="M437.12,188.59l-.16-5.45-4.37-6.21L424.39,197a6.44,6.44,0,0,0,.1,5.06h0a6.41,6.41,0,0,0,8.78,3.05l.7-.36a6.4,6.4,0,0,0,3.47-5.9Z" style="fill:#b36766"></path><path d="M437,183.14l-3.77-5.36a7.46,7.46,0,0,0-.62,4.53,7.59,7.59,0,0,0,2.35,4.21c0,.27,0,.57,0,.87a1.19,1.19,0,0,0,.39,1l.41.35a11.29,11.29,0,0,0,1.67,7.21l-.23-7.33Z" style="fill:#964c4c"></path><path d="M437.92,192.37l-1-.55a1.23,1.23,0,0,1-.6-1v-4.35l2.17,1.29,2.16-1.25v4.31a1.23,1.23,0,0,1-.6,1l-1,.55A1.17,1.17,0,0,1,437.92,192.37Z" style="fill:#BA68C8"></path><path d="M437.92,192.37l-1-.55a1.23,1.23,0,0,1-.6-1v-4.35l2.17,1.29,2.16-1.25v4.31a1.23,1.23,0,0,1-.6,1l-1,.55A1.17,1.17,0,0,1,437.92,192.37Z" style="fill:#fff;opacity:0.30000000000000004"></path><path d="M437,173.32l2.37-.42,4.36,3.1a1.68,1.68,0,0,1,.7,1.36v9.11a1.65,1.65,0,0,1-1,1.52l-3,1.34a1.67,1.67,0,0,1-1.84-.31l-2.57-2.4a1.67,1.67,0,0,1-.54-1.24v-.82A6.71,6.71,0,0,1,433,182a5.8,5.8,0,0,1-.81-3.17h0A5.79,5.79,0,0,1,437,173.32Z" style="fill:#b36766"></path><path d="M437.11,177.28v5a1.52,1.52,0,0,0,1.52,1.51h0a1.52,1.52,0,0,0,1.51-1.51v-5.39l.62,1.5v4.14a2.13,2.13,0,0,1-2.13,2.14h0a2.14,2.14,0,0,1-2.14-2.14v-2.08a3.33,3.33,0,0,1-2.28,2C436.49,180.77,437.11,177.28,437.11,177.28Z" style="fill:#964c4c"></path><path d="M433.86,156l-.05,0h0a3.48,3.48,0,0,0-3.45.35,10.76,10.76,0,0,0-4.86,8.42,3.45,3.45,0,0,0,1.4,3.11l6.75,3.83,6.55-11.94ZM426,164.43a5.32,5.32,0,0,1,.05-.79,5.32,5.32,0,0,0-.05.79,5.43,5.43,0,0,0,.05.72A5.43,5.43,0,0,1,426,164.43Z" style="fill:#BA68C8"></path><path d="M433.86,156l-.05,0h0a3.48,3.48,0,0,0-3.45.35,10.76,10.76,0,0,0-4.86,8.42,3.45,3.45,0,0,0,1.4,3.11l6.75,3.83,6.55-11.94ZM426,164.43a5.32,5.32,0,0,1,.05-.79,5.32,5.32,0,0,0-.05.79,5.43,5.43,0,0,0,.05.72A5.43,5.43,0,0,1,426,164.43Z" style="fill:#fff;opacity:0.30000000000000004"></path><path d="M440.83,158.17l-.07,0h0c-1.12-.64-2.67-.54-4.37.44a13.59,13.59,0,0,0-6.16,10.67c0,1.92.68,3.28,1.77,3.94,10.89,7.82,17.49,19.74,17.49,19.74L465.09,163C459.41,164.28,448.73,162.9,440.83,158.17Z" style="fill:#BA68C8"></path><path d="M440.83,158.17l-.07,0h0c-1.12-.64-2.67-.54-4.37.44a13.59,13.59,0,0,0-6.16,10.67c0,1.92.68,3.28,1.77,3.94,10.89,7.82,17.49,19.74,17.49,19.74L465.09,163C459.41,164.28,448.73,162.9,440.83,158.17Z" style="fill:#fff;opacity:0.5"></path><path d="M450.19,184a16.24,16.24,0,0,0-.12,2,13,13,0,0,0,.13,1.81,13,13,0,0,1-.13-1.81A16.24,16.24,0,0,1,450.19,184Z" style="fill:#455a64"></path><path d="M470.1,168a6.07,6.07,0,0,0-.59-.65l0,0a5,5,0,0,0-.62-.5l-.36-.22a5.5,5.5,0,0,0-1.6-.6,6.75,6.75,0,0,0-1.36-.11,6.48,6.48,0,0,0-1,.09,8.13,8.13,0,0,0-1,.22l-.52.16c-.35.12-.71.27-1.07.43s-.73.36-1.11.57a17.47,17.47,0,0,0-2.69,1.95c-.35.31-.69.62-1,1s-.65.68-1,1c-.16.18-.32.36-.47.55a26.22,26.22,0,0,0-2.11,3c-.25.41-.5.83-.73,1.26s-.45.86-.66,1.3-.4.88-.58,1.33a22.67,22.67,0,0,0-1.07,3.37c-.11.45-.19.9-.26,1.34,0,.22-.07.45-.1.67a16.24,16.24,0,0,0-.12,2,13,13,0,0,0,.13,1.81c.06.38.13.74.22,1.09a9.37,9.37,0,0,0,.32,1,6.47,6.47,0,0,0,.42.88,6.78,6.78,0,0,0,.5.77,5.31,5.31,0,0,0,3.65,2.08,6.93,6.93,0,0,0,.92,0,8.33,8.33,0,0,0,1-.09,7.63,7.63,0,0,0,1-.22l.53-.16a12.3,12.3,0,0,0,2.17-1,19.41,19.41,0,0,0,5.15-4.47l.45-.56c.29-.38.58-.77.86-1.17s.54-.8.8-1.22a22.2,22.2,0,0,0,3.51-11.23,11.09,11.09,0,0,0-.49-3.41A7.18,7.18,0,0,0,470.1,168Z" style="fill:#BA68C8"></path><path d="M470.1,168a6.07,6.07,0,0,0-.59-.65l0,0a5,5,0,0,0-.62-.5l-.36-.22a5.5,5.5,0,0,0-1.6-.6,6.75,6.75,0,0,0-1.36-.11,6.48,6.48,0,0,0-1,.09,8.13,8.13,0,0,0-1,.22l-.52.16c-.35.12-.71.27-1.07.43s-.73.36-1.11.57a17.47,17.47,0,0,0-2.69,1.95c-.35.31-.69.62-1,1s-.65.68-1,1c-.16.18-.32.36-.47.55a26.22,26.22,0,0,0-2.11,3c-.25.41-.5.83-.73,1.26s-.45.86-.66,1.3-.4.88-.58,1.33a22.67,22.67,0,0,0-1.07,3.37c-.11.45-.19.9-.26,1.34,0,.22-.07.45-.1.67a16.24,16.24,0,0,0-.12,2,13,13,0,0,0,.13,1.81c.06.38.13.74.22,1.09a9.37,9.37,0,0,0,.32,1,6.47,6.47,0,0,0,.42.88,6.78,6.78,0,0,0,.5.77,5.31,5.31,0,0,0,3.65,2.08,6.93,6.93,0,0,0,.92,0,8.33,8.33,0,0,0,1-.09,7.63,7.63,0,0,0,1-.22l.53-.16a12.3,12.3,0,0,0,2.17-1,19.41,19.41,0,0,0,5.15-4.47l.45-.56c.29-.38.58-.77.86-1.17s.54-.8.8-1.22a22.2,22.2,0,0,0,3.51-11.23,11.09,11.09,0,0,0-.49-3.41A7.18,7.18,0,0,0,470.1,168Z" style="opacity:0.5"></path><polygon points="454.48 170.13 460.12 173.5 454.92 182.34 448.72 179 454.48 170.13" style="fill:#BA68C8"></polygon><polygon points="454.48 170.13 460.12 173.5 454.92 182.34 448.72 179 454.48 170.13" style="opacity:0.30000000000000004"></polygon><path d="M460.54,173.9a2.09,2.09,0,0,0-.2-.22h0l-.21-.17-.13-.08a1.83,1.83,0,0,0-.54-.2,2.15,2.15,0,0,0-.45,0l-.33,0-.34.08-.18.05a2.75,2.75,0,0,0-.36.15l-.37.19a5.68,5.68,0,0,0-.91.66c-.12.1-.23.21-.34.32l-.33.35-.16.18a10.38,10.38,0,0,0-.71,1c-.08.14-.17.29-.24.43s-.16.29-.23.44-.13.3-.19.45a7.8,7.8,0,0,0-.36,1.13,3.58,3.58,0,0,0-.09.45l0,.23a4.87,4.87,0,0,0,0,.66,4,4,0,0,0,0,.61c0,.13,0,.25.07.37s.07.22.11.33a2.59,2.59,0,0,0,.14.29,1.67,1.67,0,0,0,.17.26,1.79,1.79,0,0,0,1.23.7,1.62,1.62,0,0,0,.31,0l.33,0a2.09,2.09,0,0,0,.34-.08l.18-.05a3.93,3.93,0,0,0,.73-.34,6.44,6.44,0,0,0,1.73-1.51,1.46,1.46,0,0,0,.16-.19c.1-.12.19-.25.29-.39l.27-.41a7.53,7.53,0,0,0,1.18-3.79,3.6,3.6,0,0,0-.17-1.14A2.43,2.43,0,0,0,460.54,173.9Z" style="fill:#BA68C8"></path><path d="M469.61,165l-.14-.08.13.09Z" style="fill:#BA68C8"></path><path d="M448.72,186.75c0-7.72,5.4-17.12,12.12-21,3.35-1.93,6.39-2.13,8.6-.88l-2.58-1.51h0c-2.21-1.26-5.26-1.08-8.62.87-6.72,3.87-12.15,13.28-12.13,21,0,3.73,1.29,6.38,3.37,7.69h0l.15.09.13.08,2.44,1.43h0C450.05,193.22,448.73,190.54,448.72,186.75Z" style="fill:#BA68C8"></path><path d="M448.72,186.75c0-7.72,5.4-17.12,12.12-21,3.35-1.93,6.39-2.13,8.6-.88l-2.58-1.51h0c-2.21-1.26-5.26-1.08-8.62.87-6.72,3.87-12.15,13.28-12.13,21,0,3.73,1.29,6.38,3.37,7.69h0l.15.09.13.08,2.44,1.43h0C450.05,193.22,448.73,190.54,448.72,186.75Z" style="fill:#fff;opacity:0.30000000000000004"></path><path d="M469.6,165l-.13-.09,0,0c-2.21-1.25-5.25-1.05-8.6.88-6.72,3.88-12.15,13.28-12.12,21,0,3.79,1.33,6.47,3.47,7.75s5.31,1.18,8.73-.79c6.71-3.88,12.14-13.28,12.12-21C473,168.94,471.72,166.27,469.6,165Zm-1.43,19.74c-.26.42-.53.83-.8,1.22s-.57.79-.86,1.17l-.45.56a19.41,19.41,0,0,1-5.15,4.47,12.3,12.3,0,0,1-2.17,1l-.53.16a7.63,7.63,0,0,1-1,.22,8.33,8.33,0,0,1-1,.09,6.93,6.93,0,0,1-.92,0,5.31,5.31,0,0,1-3.65-2.08,6.78,6.78,0,0,1-.5-.77,6.47,6.47,0,0,1-.42-.88,9.37,9.37,0,0,1-.32-1c-.09-.35-.16-.71-.22-1.09a13,13,0,0,1-.13-1.81,16.24,16.24,0,0,1,.12-2c0-.22.06-.45.1-.67.07-.44.15-.89.26-1.34a22.67,22.67,0,0,1,1.07-3.37c.18-.45.37-.89.58-1.33s.43-.87.66-1.3.48-.85.73-1.26a26.22,26.22,0,0,1,2.11-3c.15-.19.31-.37.47-.55.31-.35.63-.7,1-1s.67-.64,1-1a17.47,17.47,0,0,1,2.69-1.95c.38-.21.74-.4,1.11-.57s.72-.31,1.07-.43l.52-.16a8.13,8.13,0,0,1,1-.22,6.48,6.48,0,0,1,1-.09,6.75,6.75,0,0,1,1.36.11,5.5,5.5,0,0,1,1.6.6l.36.22a5,5,0,0,1,.62.5l0,0a6.07,6.07,0,0,1,.59.65,7.18,7.18,0,0,1,1.09,2.12,11.09,11.09,0,0,1,.49,3.41h0A22.2,22.2,0,0,1,468.17,184.72Z" style="fill:#BA68C8"></path><path d="M373.05,175.31c-2.05-10.79-8.52-28.4-12.43-38.54a15.74,15.74,0,0,1,1.89-14.84l16.31-22.76a21.77,21.77,0,0,1,4.08-10.55,4.4,4.4,0,0,1,5.67-1.42l6.88,3.56a1.81,1.81,0,0,1,1,1.61v1.41a1.8,1.8,0,0,1-.49,1.25l-1.27,1.35c-.74,2.61-3.55,6.69-6.68,7.65l-13.41,25.91,11.82,30.74C394.7,180.57,379.35,190.63,373.05,175.31Z" style="fill:#b36766"></path><path d="M394.4,95.38A7,7,0,0,0,392.9,94a2.33,2.33,0,0,0-2-.33,1.81,1.81,0,0,0-1.16,2c-1.44-.49-2.86-1-4.25-1.62-.76-.32-1.6-.77-1.79-1.57a1.33,1.33,0,0,1,.33-1.21,1.37,1.37,0,0,1,1.18-.42c-.05-.6-.11-1.21-.17-1.81-.14.39-.37.87-.52,1.27a1.94,1.94,0,0,0-1.76,1.26,2.42,2.42,0,0,0,.22,2.11,4,4,0,0,0,1.61,1.47,11.58,11.58,0,0,0,2.05.79l2.87.82c-5.12.88-4.53,3.15-3.67,4.84l8.41-3.36Z" style="opacity:0.2"></path><path d="M388,104c6.59-.62,8.7-4.2,8.44-6s-3.44-4.6-5-4.15-.8,2.62.82,3.81C384.78,96.31,384.16,101.87,388,104Z" style="fill:#b36766"></path><path d="M382.85,150.09a12.56,12.56,0,0,1-16.26,6.47c2.73,9.51,5,15.48,6.93,22,.87,3,2,3.47,4.48,4.65,6.36,3,10.38-1.4,11.49-5.43S391.8,168.13,382.85,150.09Z" style="fill:#455a64"></path></g><g id="freepik--character-1--inject-81"><path d="M143.94,217.18a1.17,1.17,0,0,0-2.11-1L139.69,220l-1.07-4.5,1-4.93a1.07,1.07,0,0,0-1.19-1.28l-4.16.56a3.39,3.39,0,0,0-2.84,2.62L130.25,218l2.19,11.49,7.23,28.21L129.31,293l13.24,4.06,10.61-40.32-13.75-31.3,2.15-2.47Z" style="fill:#ffa8a7"></path><path d="M138.9,260.34,129.31,293l13.24,4.06,9-34.09Z" style="fill:#ff9192"></path><path d="M195.53,236.35l-.7-9.55,1.21-8.87a1.17,1.17,0,0,1,1.37-1h0a1.16,1.16,0,0,1,1,1.21l-.28,6.23,2.59-4.93a2.16,2.16,0,0,1,2.66-1l2.53.92a2.16,2.16,0,0,1,1.17,3l-2.4,4.63c3.4,7.27-1.49,11.8-1.49,11.8Z" style="fill:#ffa8a7"></path><path d="M148.41,465c.62,1.32,2.61,2.53,4.78,2.89a21.77,21.77,0,0,0,6.57-.42,43.4,43.4,0,0,1,9.8-.25,51.8,51.8,0,0,0,6.09.44,9.7,9.7,0,0,0,5.74-1.82,5.86,5.86,0,0,0,2.15-3.66,5.57,5.57,0,0,1-2.15,4.94,9.7,9.7,0,0,1-5.74,1.81,51.79,51.79,0,0,1-6.09-.43,42.82,42.82,0,0,0-9.8.25c-2.19.3-4.55.93-6.72.57s-4.16-1.57-4.79-2.89Z" style="fill:#263238"></path><path d="M172.19,461.09c-1.83,0-1.15-2.71-2.89-4.52.7,0,1.41.05,2.12.05C173,458.87,173.43,461.09,172.19,461.09Z" style="fill:#fff"></path><path d="M168.39,460.94c-1.84,0-1.35-3.22-3.16-5.1.41.14.83.26,1.25.36s.73.14,1.09.19C169.18,458.67,169.64,460.94,168.39,460.94Z" style="fill:#fff"></path><path d="M150.3,454.76a2.44,2.44,0,0,1,.95-1.49l9.88-.24a8.5,8.5,0,0,0,4.1,2.81c1.81,1.88,1.32,5.1,3.16,5.1,1.25,0,.79-2.27-.82-4.55.57.09,1.15.14,1.73.18,1.74,1.81,1.06,4.52,2.89,4.52,1.24,0,.8-2.22-.77-4.47l1.39,0c.42,0,.84,0,1.26-.07,3.64,2.88,4,6,3.48,10.89a13.61,13.61,0,0,1-1.9.2,51.8,51.8,0,0,1-6.09-.44,43.4,43.4,0,0,0-9.8.25,21.77,21.77,0,0,1-6.57.42c-2.17-.36-4.16-1.57-4.78-2.89Z" style="fill:#455a64"></path><path d="M174.07,456.53a15.74,15.74,0,0,1,4.94,0,5.89,5.89,0,0,1,4.45,3.87,4.44,4.44,0,0,1,.08,1.74,5.86,5.86,0,0,1-2.15,3.66,8.64,8.64,0,0,1-3.84,1.62C178,462.53,177.71,459.41,174.07,456.53Z" style="fill:#fff"></path><path d="M161.41,450.21V455a2,2,0,0,1-2,2h-5a3.2,3.2,0,0,1-3.2-3.11l-.12-3.61Z" style="fill:#ffa8a7"></path><path d="M128.48,448.09a3.69,3.69,0,0,0,3,2.1,6.24,6.24,0,0,0,3.79-.93c1.72-1.09,2.39-2.8,3.55-4.35a26.32,26.32,0,0,1,4.14-4,13.76,13.76,0,0,0,3.95-4.58,6.44,6.44,0,0,0,.46-1.68,6,6,0,0,1-.46,3.22,13.76,13.76,0,0,1-3.95,4.58,26,26,0,0,0-4.14,4c-1.16,1.54-1.83,3.25-3.55,4.34a6.24,6.24,0,0,1-3.79.93,3.66,3.66,0,0,1-3-2.09,8.53,8.53,0,0,1-.18-2.66A3.55,3.55,0,0,0,128.48,448.09Z" style="fill:#263238"></path><path d="M139.71,437.64a1.25,1.25,0,0,1,.24.82.83.83,0,0,1-.54.61,1.18,1.18,0,0,1-1.11-.29,5.16,5.16,0,0,1-.77-.91A5.86,5.86,0,0,0,135,436a5.74,5.74,0,0,0-1.52-.33l1.23-1.13a6.2,6.2,0,0,1,2.25.55A6.28,6.28,0,0,1,139.71,437.64Z" style="fill:#fff"></path><path d="M139.45,433.72a6.19,6.19,0,0,1,2.75,2.54,1.21,1.21,0,0,1,.24.81.87.87,0,0,1-.54.62,1.18,1.18,0,0,1-1.11-.29,5.69,5.69,0,0,1-.77-.92,5.75,5.75,0,0,0-5-2.18l1.22-1.12A6.26,6.26,0,0,1,139.45,433.72Z" style="fill:#fff"></path><path d="M137,432.48a12.8,12.8,0,0,1,3.88-2.59,5.14,5.14,0,0,1,5.33.73,4.62,4.62,0,0,1,1.18,4,6.44,6.44,0,0,1-.46,1.68,8.5,8.5,0,0,1-1.23,1.94C145.21,434,141.51,432,137,432.48Z" style="fill:#fff"></path><path d="M128.38,443.92a8.82,8.82,0,0,1,1-4.16l2.4-2.52,1.72-1.56A5.74,5.74,0,0,1,135,436a5.86,5.86,0,0,1,2.54,1.86,5.16,5.16,0,0,0,.77.91,1.18,1.18,0,0,0,1.11.29.83.83,0,0,0,.54-.61,1.25,1.25,0,0,0-.24-.82A6.28,6.28,0,0,0,137,435.1a6.2,6.2,0,0,0-2.25-.55l.28-.25a5.75,5.75,0,0,1,5,2.18,5.69,5.69,0,0,0,.77.92,1.18,1.18,0,0,0,1.11.29.87.87,0,0,0,.54-.62,1.21,1.21,0,0,0-.24-.81,6.19,6.19,0,0,0-2.75-2.54,6.26,6.26,0,0,0-3.25-.54l.05,0,.73-.66c4.53-.48,8.23,1.51,8.7,5.76a20.58,20.58,0,0,1-2.72,2.64,26.32,26.32,0,0,0-4.14,4c-1.16,1.55-1.83,3.26-3.55,4.35a6.24,6.24,0,0,1-3.79.93,3.69,3.69,0,0,1-3-2.1,3.55,3.55,0,0,1-.18-1.11C128.25,445.87,128.35,444.35,128.38,443.92Z" style="fill:#455a64"></path><path d="M137.05,436.39l-.28,5.11c-3.22,1.86-6.61.85-7.74-.33l-.22-4.78Z" style="fill:#ffa8a7"></path><path d="M130.22,326.76a5,5,0,0,0,.48-.8A46.47,46.47,0,0,0,164,329.74c2.35,17.53,4.38,47.21,3.14,66.79-1,22.8-5.23,55.08-5.23,55.08-5.47,1.64-9.58.63-11.13-.55C148.91,428.45,144.9,413,148,398c-2.07-10.45-3.41-23.58-3.41-23.58L143,397.51l-5.35,40.6a9.57,9.57,0,0,1-9.6-.49c-3.89-23.22-5.35-38.95-2-50.47C120.92,349,120.66,339.29,130.22,326.76Z" style="fill:#37474f"></path><path d="M142.29,369.84l-2.86-12c-3.35-.55-8.57-2.73-11.32-7.32A23,23,0,0,0,142,355.38l2.61,19-.55,8.13-.23-3A61.67,61.67,0,0,0,142.29,369.84Z" style="opacity:0.2"></path><path d="M150.94,285.47l8.36,1.65c1.85,3.38,3.74,6.55,5.58,9.94,1.4,2.54,2.83,5.25,2.72,8.15a8.31,8.31,0,0,1-5,7.21l4,28.6c-15.49,9.47-40.6,2.81-42.91-5.58,2.24-5.79,4.62-7.88,6.08-14.71,1.07-5-1.45-12.08-1.89-14.11a49.4,49.4,0,0,1-1.41-9.42,16.57,16.57,0,0,1,2.21-9.14l.05-.08A10.22,10.22,0,0,1,139,283.57Z" style="fill:#BA68C8"></path><path d="M140.31,278.78a8.45,8.45,0,0,1-5.05-5.27c-.77-2.51-.23-5.2-1-7.72-.37-1.24-1-2.29-1.31-3.58a13.83,13.83,0,0,1-.33-4.2c.41-4.56,3.74-8.62,8-10.74a29.74,29.74,0,0,1,16.05-2.36c2.18.39,4.44,1.1,5.87,2.71s1.46,4.51-.26,5.84a4.55,4.55,0,0,1,1.89,3.22,3.89,3.89,0,0,1-2.67,3.73c-1.56,15-8.39,18-11.94,19.27S143.58,281.93,140.31,278.78Z" style="fill:#263238"></path><polygon points="162.45 265.44 165.03 269.92 162.2 270.97 162.45 265.44" style="fill:#ff9192"></polygon><path d="M162.74,263.44c-.41-3.94-1.57-7.65-4.13-9.53.43,2.47-.05,6-2.54,7.85a11.92,11.92,0,0,1-.41,6.23,6.13,6.13,0,0,0-1.91-3.37,3.58,3.58,0,0,0-3.67-.79,3.67,3.67,0,0,0-1.84,2,4.78,4.78,0,0,0,6,6.32,9.19,9.19,0,0,1-7.05,7.15,11.92,11.92,0,0,1-6.85-.65l-1.06,5.3c4.32,4.61,11.69,1.51,11.69,1.51l1-5.22c8.49.51,9.28.36,10.22-4.32A45.75,45.75,0,0,0,162.74,263.44Z" style="fill:#ffa8a7"></path><path d="M136.3,255.3l.84-3.28a1.41,1.41,0,0,1,1.67-.52,1.91,1.91,0,0,1,1.05,1.42,3.42,3.42,0,0,1-.24,1.81,3.06,3.06,0,0,1-.83,1.28,1.66,1.66,0,0,1-1.44.4C136.85,256.28,136.26,255.82,136.3,255.3Z" style="fill:#BA68C8"></path><path d="M137,255.41c-2.49-.6-5.15,1-6.4,3.19a10.84,10.84,0,0,0-.76,7.47c.79,3.77,2.75,7.16,4.43,10.62s3.15,7.21,2.82,11.05c-.43,5-4.47,9-9.36,10.3a5.27,5.27,0,0,0,1.94-4.1,8.23,8.23,0,0,1-5.65,3.53,7.91,7.91,0,0,1-6.25-1.85,7.46,7.46,0,0,0,5.37-2.09,6.42,6.42,0,0,1-3.94-.55c4.09-2.31,5.46-7.67,5-12.34s-2.45-9.06-3.32-13.67-.45-10,3-13.17c2.67-2.5,6.66-3.18,10.27-2.57a18.78,18.78,0,0,1,3.46.92C139.22,252.57,138.2,255.65,137,255.41Z" style="fill:#263238"></path><path d="M155.44,287.28l25.78-19.08,14.31-31.85,7.63,2.44-9.65,32.56a11.51,11.51,0,0,1-3.44,5.37l-25.24,22.2a7.49,7.49,0,0,1-10.21-.31h0A7.49,7.49,0,0,1,155.44,287.28Z" style="fill:#ffa8a7"></path></g></svg>