<svg xmlns="http://www.w3.org/2000/svg" version="1.1" viewBox="0 0 510000 400000"><g fill-opacity="1" fill-rule="nonzero" stroke="none"><path d="M396555 117238c7543-31160 13930-66304-293-95000-9867-19914-46371-26620-67297-19445-20926 7172-36055 26637-42710 47855-6657 21220-5884 44086-2980 66145 38487-738 76971-1477 113280 445" fill="#090814"/><path d="m350883 99746 14090 43047-54516 14450 3953-51817Zm0 0" fill="#ed9da0"/><path d="M370984 50777c-11886-21765-39156-29761-60902-17867-21750 11899-29742 39188-17855 60950 11890 21765 39160 29765 60906 17867 21750-11899 29742-39188 17851-60950Zm0 0" fill="#ed9da0"/><path d="M386473 63066a56419 56419 0 00-28293-49992 56330 56330 0 00-57410 758c-17563 10715-27899 30156-26965 50723 6488 11 20530-5430 20530-5430s62353 5313 92138 3941" fill="#090814"/><path d="M298550 132074s53368-1004 84368 3320c31000 4329 39637 13980 39637 13980l-1790 134235 39942 75761-201504-38180 15500-57273-7152-120512Zm0 0" fill="#c0e6c4"/><path d="M2313 392848a14737 14737 0 01-868-14290l32676-68703a14852 14852 0 01 13356-8437h412695a14746 14746 0 01 13098 7922l35020 66805a14811 14811 0 01-423 14511 14795 14795 0 01-12613 7168L14860 399720h-60a14707 14707 0 01-12490-6870" fill="#fff"/><path d="M2313 392848a14737 14737 0 01-868-14290l32676-68703a14852 14852 0 01 13356-8437h412695a14746 14746 0 01 13098 7922l35020 66805a14811 14811 0 01-423 14511 14795 14795 0 01-12613 7168L14860 399720h-60a14707 14707 0 01-12490-6870m45165-89880a13292 13292 0 00-11954 7554L2848 379227a13250 13250 0 00 760 12765 13234 13234 0 00 11193 6172h54l480391-1890a13234 13234 0 00 11290-6415 13255 13255 0 00 382-12988l-35023-66808a13205 13205 0 00-11723-7094Zm0 0" fill="#3f3d56"/><path d="m421750 373457-170309-11719a5660 5660 0 01-2523-10496l37660-22613a5603 5603 0 01 3168-797l147313 6695a5657 5657 0 01 4738 8305l-14668 27633a5662 5662 0 01-5380 2992" fill="#3f3d56"/><path d="m249965 354902 169610 11633 13410-28933-145430-5707Zm0 0" fill="#fff"/><path d="M384777 340930c3278 129 5774 3070 5953 6254 188 3304-2110 6351-4867 7925-3234 1840-7270 2132-10910 1820-3273-289-6836-1309-8941-4010-1774-2279-2426-5720-918-8300 1492-2565 4672-3270 7328-2245a7080 7080 0 01 4605 6676 10260 10260 0 01-4636 8312c-2930 2000-6613 2645-10101 2637a28684 28684 0 01-11086-2290c-3272-1389-6546-3393-8890-6110-2195-2556-3511-6095-2292-9404a6225 6225 0 01 6420-4148 7955 7955 0 01 6500 4200c1330 2760 730 6077-956 8546a10906 10906 0 01-8450 4687c-3640 250-7245-1046-10241-3046-2773-1852-5210-4227-8187-5770a10040 10040 0 00-4618-1210c-2067 0-4051 679-6060 1073-1687 434-3456 430-5140-15a7392 7392 0 01-3687-2547 4237 4237 0 01-672-3985c379-1078 2110-613 1722 477-886 2517 2157 4364 4290 4595 1617 175 3285-293 4843-660 1620-450 3290-696 4969-727 5957 144 9895 5242 14695 8004 5047 2906 12442 3110 15532-2664 1120-2098 1355-4887-188-6848a6270 6270 0 00-5637-2290c-2597 396-3894 2868-3800 5337 117 3012 2214 5460 4453 7266a26653 26653 0 00 17960 5703c2993-168 6169-950 8493-2942 2004-1722 3375-4520 2890-7200a5317 5317 0 00-4710-4315 3917 3917 0 00-4387 3869 6691 6691 0 00 3808 6186c2633 1395 5825 1570 8743 1418 3100-164 6328-980 8496-3340 1850-2015 2550-5003 847-7335a4193 4193 0 00-3172-1805c-1148-47-1152-1836 0-1793Zm0 0" fill="#c0e6c4"/><path d="m303266 339012 910-5645 50597-96777a3278 3278 0 01 4407-1352 3284 3284 0 01 1406 4395l-50578 96734-4133 4012c-480 460-1207 566-1797 258a1550 1550 0 01-812-1625" fill="#3f3d56"/><path d="M337754 277438a36350 36350 0 01 15656 7082l254 54 50-254 55145 8640-3996-73401 41797-22907-9875 124075a14665 14665 0 01-6960 8960 14650 14650 0 01-11270 1310l-70203-20208 175-863-246-67a36301 36301 0 01-17180 430c-14246-2883-24308-12578-22472-21652 1836-9070 14875-14086 29125-11200" fill="#ed9da0"/><path d="m375457 162500 47098-13125s24738 18195 27718 37883c356 2344 1340 111410 301 114250-7703 21008-50078-12530-50078-12530Zm0 0" fill="#c0e6c4"/><path d="m171172 358535-4883-4187a5223 5223 0 00-2555-1196l-108790-18144a5856 5856 0 01-4788-4684 5865 5865 0 01 2739-6117l38812-23300a5820 5820 0 01 4300-692l137934 31187a5857 5857 0 01 363 11328l-57671 16973a5835 5835 0 01-5461-1172Zm0 0" fill="#3f3d56"/><path d="M118781 223203a36366 36366 0 01 13989 9980l242 102 101-238 52430 19164 55980-90711 30950 19195-64907 104164a14669 14669 0 01-8570 7442 14643 14643 0 01-11309-903l-64960-33421 340-813-230-113a36356 36356 0 01-16939-2906c-13418-5590-21414-17051-17855-25598 3555-8547 17316-10938 30738-5344Zm0 0" fill="#ed9da0"/><path d="m301578 177879-24762-37055s-29464 5836-41601 21613c-1516 1973-53633 77614-53970 80915-2350 23105 57548 33930 57548 33930Zm0 0" fill="#c0e6c4"/><path d="M168477 359648 43770 342398a10644 10644 0 01-8774-7625L6352 234457a10666 10666 0 01 1992-9660 10634 10634 0 01 9054-3887l125641 9633a10638 10638 0 01 9491 7969l27707 107933a10646 10646 0 01-11765 13203Zm0 0" fill="#3f3d56"/><path d="M140680 154168c730 800 3375-16 8636-1684 3996-1270 4614-1730 4993-2058 1340-1164 1687-2387 3011-7790 2380-9695 2453-10656 3676-12714 418-707 1480-2399 1223-2606-267-210-1424 1543-3544 2207-2070 650-3004-386-4770-125-2285 340-3644 2512-5773 6028-1887 3113-2125 4367-4770 10550-750 1750-1355 3110-1816 4180a1054360 1054360 0 00-15450 14723l270-419c2263-3476 2570-5335 2536-6734-50-2257-1130-3980-3285-7335a53535 53535 0 00-6527-8040c-3160-3386-4742-5082-5371-4972-4496 793-5700 31430-43 36910a9976 9976 0 00-1926 1746c-4848-5380-13140-11392-22328-12134-5664-453-8793 1324-9766 1934-4492 2828-7164 8480-5824 10074 1254 1487 4867-1895 11950-1708 4940 130 8800 1922 11093 2988 4808 2235 6566 4434 10110 5938a15456 15456 0 00-3805 4676c-286 296-575 590-860 886a29677 29677 0 00-12094-3922c-5664-457-8793 1320-9761 1934a14617 14617 0 00-5931 7453c-462 94-884 200-1278 313-1371-3105-5457-6379-9258-8030-6541-2840-15032-2087-15943 613a1462 1462 0 00-47 257 198223 198223 0 01 2906-17242c39 172 94 336 160 500 1614 4060 5978 7953 11923 9973 4668 1585 6620 765 7117 534 473-223 2524-1100 3024-2850 933-3244-4766-12833-8364-9615-11546 10332-13132 1965-13663 555 980-4508 2110-8996 3380-13453 19 28 38 56 62 83 2523 3062 7379 5220 13086 5312 4480 78 5945-1175 6312-1515 348-317 1879-1653 1828-3305-97-3066-5547-5566-9910-6000-4016-398-8348 832-10492 2395 996-3340 2070-6664 3219-9977 2929 1200 7085 1040 11167-790 3367-1503 4020-2948 4175-3327 149-363 825-1887 210-3106-1135-2250-6073-2214-9475-1020a14699 14699 0 00-3875 2111 286492 286492 0 01 6620-16160l-2382-598a212907 212907 0 00-7970 20750 18985 18985 0 00-1917-6004c-2745-5222-8616-9140-10600-7870a1929 1929 0 00-715 1160c-1215 3968-300 9453 2902 14488 2515 3957 4452 4512 4956 4637 426 105 2070 558 3422-28a226623 226623 0 00-2514 9395 18256 18256 0 00-4660-6422c-4433-3890-11316-5453-12715-3555a1922 1922 0 00-251 1340c280 4140 3097 8934 7890 12492 3762 2790 5770 2613 6285 2550a7222 7222 0 00 2102-527 221380 221380 0 00-2160 11513c-1242-4312-5457-9699-9434-7984-7062 3040-15363-1629-16277 414a2172 2172 0 00 187 1672c1832 4781 6887 9410 13820 11870 5446 1930 7750 997 8337 735a8243 8243 0 00 2620-1703 232573 232573 0 00-1581 14938c-1473-3220-5621-6606-9500-8356-6810-3063-15715-2390-16703 425a2439 2439 0 00 190 1715c1880 4906 7067 9660 14188 12187 5586 1980 7950 1020 8550 754a7980 7980 0 00 2979-2073 241012 241012 0 00-284 6945c-20 660-30 1325-42 1985a1741 1741 0 00-196 400 2477 2477 0 00 160 1707c-5 420-8 840-8 1260a36177 36177 0 01-4520-5250c-1613-2185-3145-583-4130 1276a4405 4405 0 00-4171 950c-7758 7253-16460 3406-16586 5570 24 620 282 1215 720 1656 3390 4332 10038 7492 17940 7824 6204 262 8274-1426 8793-1879 364-308 707-636 1032-988 355 285 703 543 1047 777 136 4154 386 8302 742 12443-293 23-570 74-782 94-3003 308-4020-3747-8554-5230-1508-493-4410-1028-5942 0a10586 10586 0 01-3562 1663c-1863 512-3590 1910-4754 2856-2191 1777-3290 2664-3800 4277a4707 4707 0 00 0 3332c288 656 968 1633 3562 2613a16587 16587 0 00 11406 477c1223-410 290-266 4988-2617 3700-1848 5864-2735 6180-4516 110-629 0-1390 477-1664 289-120 620-110 902 35a214550 214550 0 00 1172 9970h-4235a14600 14600 0 00-13156 8163l-15828 31970a14764 14764 0 00-1531 6523v82180c8 8110 6578 14683 14683 14691h36950c8105-8 14675-6582 14683-14695V297460a14601 14601 0 00-1017-5367l-15085-38465a14577 14577 0 00-10532-8988c1520-1801 3047-3602 4578-5400a30877 30877 0 00 6339 2236c6042 1418 8389 152 8988-192 566-332 3030-1687 3445-3941 43-242 62-485 58-730 6192 5034 9418 7515 11778 6687 2027-711 3187-3043 3847-5133 696 94 1430 195 2210 297 8480 1133 12750 1660 14385-352 2262-2780 117-8140-476-9617a17708 17708 0 00-4493-6355c-1593-1547-6144-5946-13304-6532a14847 14847 0 00-4380 266 18219 18219 0 00-1597-1320 14840 14840 0 00-3351-1871c1793-1965 3590-3922 5394-5871 285 125 559 253 809 370 5914 2750 7210 5442 12898 6860 2582 640 5504 1370 6227 273 1285-1941-4168-9941-12598-15355l1707-1800c775 323 1454 636 2030 905 5916 2750 7217 5442 12905 6860 2578 644 5500 1370 6222 277 1149-1734-3070-8293-9980-13531a22475 22475 0 01 7672-1184c4945 125 8805 1922 11094 2989 5914 2750 7214 5440 12902 6859 2582 640 5500 1370 6226 273 1910-2890-11066-19172-26585-20422a21195 21195 0 00-3266-15 15060 15060 0 00-438-688c5250 168 15504-1336 24235 4797 2515 1770 7406 5930 15586 9344 2613 1094 3930 1633 4293 1184 1297-1606-9485-14820-24650-21330-6010-2581-9730-2823-12366-2432 406-465 800-942 1184-1426a1063288 1063288 0 01 17922-17187c-293 902-286 1382 35 1734Zm-75782 72137c-6670-2160-14750-1000-16855 1457-297-2176-550-4360-766-6547 3040 1700 6211 2152 12227 2957 2560 344 4734 629 6570 808 227 633 500 1250 817 1848 41 63 74 130 114 195l-55 67a22273 22273 0 00-2047-778ZM47176 197030c183-652 199-1340 47-2000 207-2511 465-5015 773-7511 16 406 110 808 277 1180 1856 4660 6868 9132 13696 11452 1078 375 2183 668 3308 875a11210 11210 0 00-941 2075c-2328-1872-5324-3230-8727-1786-925 395-1472 1832-1953 3551-3140 55-5765 710-7015 1820 7-464 4-925 15-1390 70-2640 200-5274 383-7899 50-120 94-242 133-367Zm-528 13586c137 278 286 555 438 832-145-110-290-219-430-336 0-164-4-328-4-492Zm5364 33820a17080 17080 0 00-1106-105c-860-4273-1652-8540-2320-12816a21660 21660 0 00 8234 7246 820643 820643 0 00-4808 5675Zm28152-32132c-2273-730-4941-1078-8637-1508a21322 21322 0 00-2613-2953c-387-375-980-1114-1750-1980 1992-641 4965-1782 9164-1673 3207 130 6356 868 9285 2176a1113806 1113806 0 00-5445 5942Zm12895-13903a34080 34080 0 00-7211-3324c246 0 488-8 746 0 2754 98 5469 660 8031 1672Zm0 0" fill="#e6e6e6"/></g></svg>
