<svg width="64" height="64" viewBox="0 0 64 64" fill="none" xmlns="http://www.w3.org/2000/svg">
<path d="M64 32C64 49.6737 49.6733 64 32.0003 64C14.3267 64 0 49.6731 0 32C0 14.3269 14.3267 0 32.0003 0C49.6733 0 64 14.3269 64 32Z" fill="#1E3658"/>
<mask id="mask0_2_455" style="mask-type:luminance" maskUnits="userSpaceOnUse" x="0" y="0" width="64" height="64">
<path d="M64 32C64 49.6737 49.6733 64 32.0003 64C14.3267 64 0 49.6731 0 32C0 14.3269 14.3267 0 32.0003 0C49.6733 0 64 14.3269 64 32Z" fill="white"/>
</mask>
<g mask="url(#mask0_2_455)">
<path d="M35.3608 39.3655H28.2248V46.5701H35.3608V39.3655Z" fill="#E9E7DE"/>
<path d="M42.5989 46.5701H37.9335H35.3608H28.2248H20.9855C18.8329 46.5701 17.0873 48.3157 17.0873 50.4689V64.9464H46.4977V50.4689C46.4977 48.3157 44.7515 46.5701 42.5989 46.5701Z" fill="#E9E7DE"/>
<path d="M42.7365 33.4288C44.3481 33.4288 45.6546 32.1223 45.6546 30.5107C45.6546 28.899 44.3481 27.5926 42.7365 27.5926C41.1249 27.5926 39.8184 28.899 39.8184 30.5107C39.8184 32.1223 41.1249 33.4288 42.7365 33.4288Z" fill="#FED2BC"/>
<path d="M23.7683 30.5107C23.7683 32.1222 22.4617 33.4288 20.8496 33.4288C19.2388 33.4288 17.9321 32.1222 17.9321 30.5107C17.9321 28.8992 19.2388 27.5926 20.8496 27.5926C22.4611 27.592 23.7683 28.8986 23.7683 30.5107Z" fill="#FED2BC"/>
<path d="M44.4701 30.4941C44.4701 31.456 43.6904 32.2352 42.7291 32.2352C41.7678 32.2352 40.988 31.456 40.988 30.4941C40.988 29.5323 41.7678 28.7531 42.7291 28.7531C43.6904 28.7531 44.4701 29.5328 44.4701 30.4941Z" fill="#FF8F78"/>
<path d="M20.8422 32.2352C21.8038 32.2352 22.5833 31.4557 22.5833 30.4941C22.5833 29.5326 21.8038 28.7531 20.8422 28.7531C19.8807 28.7531 19.1012 29.5326 19.1012 30.4941C19.1012 31.4557 19.8807 32.2352 20.8422 32.2352Z" fill="#FF8F78"/>
<path d="M42.7045 21.947C42.3712 16.2015 37.6213 11.6416 31.7931 11.6416C25.9643 11.6416 21.2144 16.2015 20.8816 21.947H20.8491V33.4864H20.8508C20.8508 33.5007 20.8491 33.515 20.8491 33.5293C20.8491 39.5733 25.7491 44.4728 31.7931 44.4728C37.837 44.4728 42.7365 39.5733 42.7365 33.5293C42.7365 33.515 42.7348 33.5007 42.7348 33.4864H42.7365V21.947H42.7045Z" fill="#FED2BC"/>
<path d="M41.4373 46.5701H22.1951V64.9464H41.4373V46.5701Z" fill="#232323"/>
<path d="M31.7925 40.7852C33.763 40.7852 35.3602 39.188 35.3602 37.2174H28.2242C28.2242 39.1874 29.822 40.7852 31.7925 40.7852Z" fill="#AA3727"/>
<path d="M37.0299 43.6639L31.7931 46.2196L26.5563 43.6639V50.0938L31.7931 47.5382L37.0299 50.0938V43.6639Z" fill="#C62717"/>
<path d="M33.1728 52.3412C33.1728 53.1033 32.5551 53.7209 31.7931 53.7209C31.031 53.7209 30.4134 53.1033 30.4134 52.3412C30.4134 51.5791 31.031 50.9615 31.7931 50.9615C32.5551 50.9621 33.1728 51.5797 33.1728 52.3412Z" fill="#E9E7DE"/>
<path d="M33.1728 58.0496C33.1728 58.8117 32.5551 59.4293 31.7931 59.4293C31.031 59.4293 30.4134 58.8117 30.4134 58.0496C30.4134 57.2875 31.031 56.6699 31.7931 56.6699C32.5551 56.6704 33.1728 57.2881 33.1728 58.0496Z" fill="#E9E7DE"/>
<path d="M37.0978 10.3738C36.1257 10.3738 34.8413 10.3738 34.0821 10.3738V10.3618H30.1422C30.1422 10.3618 29.9738 10.3618 29.705 10.3618C28.9937 10.3618 27.5512 10.3618 26.486 10.3618C21.098 10.3618 18.8335 13.7874 18.8335 17.5395C18.8335 19.4867 18.8335 19.1242 18.8335 24.0014C18.8335 24.1812 18.8335 24.3531 18.8335 24.5483V28.0452C18.8335 28.0452 20.0174 28.0452 20.8 28.0452C21.4074 28.0452 21.7396 27.5577 21.7396 26.9195C21.7396 26.2049 21.7396 24.5483 21.7396 24.5483C21.743 24.5483 21.7476 24.5483 21.751 24.5483C21.751 24.361 21.7624 24.1824 21.7698 24.0014C21.9639 19.876 24.3283 17.5395 26.9496 17.5395H29.7044H30.1417H33.4428V17.551H36.6349C39.2527 17.551 41.6154 19.884 41.8123 24.002C41.8215 24.1864 41.8323 24.369 41.8323 24.5608C41.8357 24.5608 41.8403 24.5608 41.8437 24.5608C41.8437 24.5608 41.8437 26.2168 41.8437 26.9315C41.8437 27.5703 42.1759 28.0578 42.7833 28.0578C43.5659 28.0578 44.751 28.0578 44.751 28.0578V24.5608C44.751 24.3656 44.751 24.1938 44.751 24.0134C44.751 24.0094 44.751 24.0066 44.751 24.002C44.751 19.1379 44.751 19.4969 44.751 17.551C44.7515 13.7994 42.4871 10.3738 37.0978 10.3738Z" fill="#232323"/>
<path d="M27.2395 17.5401C31.4968 17.5401 34.2619 23.4157 41.7678 23.4157C41.7678 22.0634 41.7678 17.116 41.7678 17.116H27.2395V17.5401Z" fill="#232323"/>
<path d="M26.6961 30.3851C27.4263 30.3851 28.0182 29.7932 28.0182 29.063C28.0182 28.3329 27.4263 27.741 26.6961 27.741C25.966 27.741 25.3741 28.3329 25.3741 29.063C25.3741 29.7932 25.966 30.3851 26.6961 30.3851Z" fill="#232323"/>
<path d="M38.2098 29.063C38.2098 29.7931 37.6167 30.3851 36.8872 30.3851C36.1559 30.3851 35.5651 29.7931 35.5651 29.063C35.5651 28.3329 36.1559 27.741 36.8872 27.741C37.6167 27.741 38.2098 28.3329 38.2098 29.063Z" fill="#232323"/>
<path d="M36.8878 33.9072C34.2163 33.9072 32.0431 31.734 32.0431 29.0625C32.0431 26.3915 34.2163 24.2183 36.8878 24.2183C39.5587 24.2183 41.7318 26.3915 41.7318 29.0625C41.7313 31.734 39.5587 33.9072 36.8878 33.9072ZM36.8878 25.3486C34.8396 25.3486 33.1728 27.0149 33.1728 29.0625C33.1728 31.1106 34.839 32.7769 36.8878 32.7769C38.9353 32.7769 40.6016 31.1106 40.6016 29.0625C40.6016 27.0149 38.9353 25.3486 36.8878 25.3486Z" fill="#232323"/>
<path d="M26.6961 33.9072C24.0246 33.9072 21.8515 31.734 21.8515 29.0625C21.8515 26.3915 24.0246 24.2183 26.6961 24.2183C29.367 24.2183 31.5402 26.3915 31.5402 29.0625C31.5402 31.734 29.367 33.9072 26.6961 33.9072ZM26.6961 25.3486C24.648 25.3486 22.9811 27.0149 22.9811 29.0625C22.9811 31.1106 24.6474 32.7769 26.6961 32.7769C28.7437 32.7769 30.4099 31.1106 30.4099 29.0625C30.4099 27.0149 28.7443 25.3486 26.6961 25.3486Z" fill="#232323"/>
<path d="M32.6077 29.3182H30.9642C30.652 29.3182 30.3991 29.0653 30.3991 28.7531C30.3991 28.4408 30.652 28.1879 30.9642 28.1879H32.6077C32.9199 28.1879 33.1728 28.4408 33.1728 28.7531C33.1728 29.0653 32.9199 29.3182 32.6077 29.3182Z" fill="#232323"/>
<path d="M28.0187 27.2021C27.9154 27.2021 27.8132 27.1587 27.7413 27.0742C27.5781 26.8836 27.2219 26.7563 26.8109 26.742C26.3279 26.7249 25.8576 26.8665 25.6344 27.0931C25.4934 27.2364 25.2622 27.2386 25.1183 27.0976C24.9745 26.9561 24.9728 26.7255 25.1138 26.5816C25.482 26.2066 26.1413 25.9828 26.836 26.0125C27.4633 26.0342 27.9959 26.2482 28.2962 26.5999C28.4269 26.7534 28.4092 26.9835 28.2556 27.1142C28.1866 27.1736 28.1026 27.2021 28.0187 27.2021Z" fill="#232323"/>
<path d="M35.5651 27.2021C35.4812 27.2021 35.3973 27.1736 35.3282 27.1148C35.1747 26.984 35.157 26.754 35.2877 26.6004C35.588 26.2488 36.1206 26.0347 36.7485 26.0131C37.4426 25.9874 38.1019 26.2066 38.4707 26.5822C38.6117 26.726 38.61 26.9572 38.4661 27.0982C38.3223 27.2398 38.0916 27.2375 37.9501 27.0936C37.728 26.867 37.2559 26.726 36.7742 26.7426C36.3626 26.7569 36.0058 26.8847 35.8431 27.0748C35.7706 27.1587 35.6679 27.2021 35.5651 27.2021Z" fill="#232323"/>
<path d="M31.7811 34.6921C31.0304 34.6921 30.382 34.2776 30.0326 33.6697C30.072 34.6047 30.8364 35.3519 31.7811 35.3519C32.7247 35.3519 33.4896 34.6042 33.529 33.6697C33.1796 34.2782 32.5317 34.6921 31.7811 34.6921Z" fill="#FF8F78"/>
</g>
</svg>
