<svg width="64" height="64" viewBox="0 0 64 64" fill="none" xmlns="http://www.w3.org/2000/svg">
<path d="M34.9276 61.0723C50.9839 59.4553 62.6893 45.1284 61.0724 29.0723C59.4555 13.0161 45.1286 1.31079 29.0724 2.92774C13.0162 4.54468 1.31075 18.8716 2.92764 34.9277C4.54453 50.9839 18.8714 62.6892 34.9276 61.0723Z" fill="#3F751C"/>
<mask id="mask0_2_16" style="mask-type:luminance" maskUnits="userSpaceOnUse" x="2" y="2" width="60" height="60">
<path d="M34.9276 61.0723C50.9839 59.4553 62.6892 45.1284 61.0724 29.0723C59.4555 13.0161 45.1286 1.31079 29.0724 2.92774C13.0161 4.54468 1.31075 18.8716 2.92764 34.9277C4.54453 50.9839 18.8714 62.6892 34.9276 61.0723Z" fill="white"/>
</mask>
<g mask="url(#mask0_2_16)">
<path d="M35.2523 38.5244H28.7362V45.1027H35.2523V38.5244Z" fill="#FF8F78"/>
<path d="M41.8597 45.1027H37.6004H35.2518H28.7357H22.1247C20.1587 45.1027 18.5658 46.6966 18.5658 48.6626V61.8817H45.419V48.6626C45.4196 46.6966 43.8257 45.1027 41.8597 45.1027Z" fill="#FED2BC"/>
<path d="M44.6513 30.4388C44.6513 31.9102 43.4583 33.1033 41.9864 33.1033C40.5155 33.1033 39.3225 31.9102 39.3225 30.4388C39.3225 28.9674 40.5155 27.7744 41.9864 27.7744C43.4583 27.7744 44.6513 28.9674 44.6513 30.4388Z" fill="#FED2BC"/>
<path d="M43.5073 30.4388C43.5073 31.2785 42.826 31.9597 41.9858 31.9597C41.1467 31.9597 40.4655 31.2785 40.4655 30.4388C40.4655 29.5991 41.1467 28.9179 41.9858 28.9179C42.8266 28.9179 43.5073 29.5991 43.5073 30.4388Z" fill="#FF8F78"/>
<path d="M24.6661 30.4388C24.6661 31.9102 23.473 33.1033 22.0022 33.1033C20.5303 33.1033 19.3372 31.9102 19.3372 30.4388C19.3372 28.9674 20.5303 27.7744 22.0022 27.7744C23.473 27.7744 24.6661 28.9674 24.6661 30.4388Z" fill="#FED2BC"/>
<path d="M23.5231 30.4388C23.5231 31.2785 22.8418 31.9597 22.0016 31.9597C21.1625 31.9597 20.4813 31.2785 20.4813 30.4388C20.4813 29.5991 21.1625 28.9179 22.0016 28.9179C22.8418 28.9179 23.5231 29.5991 23.5231 30.4388Z" fill="#FF8F78"/>
<path d="M41.9567 22.62C41.6533 17.374 37.3158 13.2105 31.9948 13.2105C26.6727 13.2105 22.3352 17.374 22.0308 22.62H22.0022V33.1559H22.0032C22.0032 33.169 22.0022 33.182 22.0022 33.195C22.0022 38.7137 26.4752 43.1873 31.9948 43.1873C37.5123 43.1873 41.9864 38.7137 41.9864 33.195C41.9864 33.182 41.9853 33.169 41.9853 33.1559H41.9864V22.62H41.9567Z" fill="#FED2BC"/>
<path d="M28.413 28.982C28.413 29.6486 27.8725 30.1892 27.2059 30.1892C26.5393 30.1892 25.9988 29.6486 25.9988 28.982C25.9988 28.3154 26.5393 27.7744 27.2059 27.7744C27.8725 27.7744 28.413 28.3149 28.413 28.982Z" fill="#232323"/>
<path d="M37.7187 28.982C37.7187 29.6486 37.1772 30.1892 36.5116 30.1892C35.8439 30.1892 35.3045 29.6486 35.3045 28.982C35.3045 28.3154 35.8439 27.7744 36.5116 27.7744C37.1772 27.7744 37.7187 28.3149 37.7187 28.982Z" fill="#232323"/>
<path d="M31.9943 39.6545C33.793 39.6545 35.2518 38.1961 35.2518 36.3963H28.7357C28.7362 38.1961 30.1945 39.6545 31.9943 39.6545Z" fill="#AA3727"/>
<path d="M28.413 26.7335C28.3187 26.7335 28.2259 26.6939 28.1597 26.6167C28.0112 26.4426 27.686 26.3259 27.3107 26.3129C26.8656 26.2983 26.4392 26.4265 26.236 26.6334C26.1077 26.7648 25.8966 26.7668 25.7653 26.6376C25.634 26.5088 25.6319 26.2977 25.7606 26.1664C26.0968 25.824 26.6946 25.6228 27.3336 25.6467C27.9069 25.6666 28.3922 25.8625 28.6669 26.1836C28.7862 26.3233 28.7695 26.5339 28.6299 26.6532C28.5668 26.7074 28.4902 26.7335 28.413 26.7335Z" fill="#232323"/>
<path d="M35.3039 26.7335C35.2268 26.7335 35.1502 26.7074 35.0877 26.6537C34.9475 26.5344 34.9313 26.3238 35.0512 26.1841C35.3258 25.8631 35.8121 25.6671 36.3855 25.6478C37.0281 25.6212 37.6207 25.8255 37.9569 26.1674C38.0856 26.2988 38.0836 26.5099 37.9522 26.6386C37.8214 26.7679 37.6103 26.7658 37.4816 26.6345C37.2783 26.4275 36.8483 26.2957 36.4084 26.3139C36.0326 26.3264 35.7069 26.4432 35.5573 26.6178C35.4911 26.6939 35.3978 26.7335 35.3039 26.7335Z" fill="#232323"/>
<path d="M39.7785 45.1027H24.1423V61.8812H39.7785V45.1027Z" fill="white"/>
<path d="M31.9948 51.9437C35.772 51.9437 38.8351 48.881 38.8351 45.1033H25.1529C25.1529 48.881 28.2155 51.9437 31.9948 51.9437Z" fill="#FED2BC"/>
<path d="M37.7187 17.9036C37.7187 18.8986 36.9124 19.7049 35.9179 19.7049C34.9229 19.7049 34.1166 18.8986 34.1166 17.9036C34.1166 16.9086 34.9229 16.1028 35.9179 16.1028C36.9124 16.1022 37.7187 16.9086 37.7187 17.9036Z" fill="white"/>
<path d="M40.9471 32.2167C40.9471 40.5124 33.6939 41.0774 31.9932 41.0774C30.293 41.0774 23.0399 40.5124 23.0399 32.2167C23.0399 31.3916 22.4103 30.9647 21.6066 30.9647V35.3878C21.6066 39.7311 23.4438 47.5029 31.9932 47.5029H31.9937C40.5431 47.5024 42.3804 39.7311 42.3804 35.3878V30.9647C41.5767 30.9647 40.9471 31.3916 40.9471 32.2167Z" fill="#AF522E"/>
<path d="M34.0984 34.6278H30.7882H29.8881C29.0937 34.6278 28.1759 35.2715 28.1759 36.4015C29.0161 36.4015 30.7882 36.4015 30.7882 36.4015C30.8007 36.4015 34.9693 36.4015 35.81 36.4015C35.81 35.2715 34.8922 34.6278 34.0984 34.6278Z" fill="#AF522E"/>
<path d="M31.9943 33.6162C31.3089 33.6162 30.7173 33.2378 30.3978 32.6827C30.4343 33.5364 31.1317 34.2187 31.9943 34.2187C32.8569 34.2187 33.5548 33.5359 33.5907 32.6827C33.2717 33.2383 32.6797 33.6162 31.9943 33.6162Z" fill="#FF8F78"/>
</g>
</svg>
