<svg width="64" height="64" viewBox="0 0 64 64" fill="none" xmlns="http://www.w3.org/2000/svg">
<path d="M64 32C64 49.6728 49.6728 64 31.9994 64C14.3266 64 0 49.6728 0 32C0 14.3266 14.3266 0 31.9994 0C49.6728 0 64 14.3266 64 32Z" fill="#03AC92"/>
<mask id="mask0_2_180" style="mask-type:luminance" maskUnits="userSpaceOnUse" x="0" y="0" width="64" height="64">
<path d="M64 32C64 49.6728 49.6728 64 31.9994 64C14.3266 64 0 49.6728 0 32C0 14.3266 14.3266 0 31.9994 0C49.6728 0 64 14.3266 64 32Z" fill="white"/>
</mask>
<g mask="url(#mask0_2_180)">
<path d="M42.8337 45.6513H38.1678H35.5956H28.4597H21.2205C19.0679 45.6513 17.3217 47.3975 17.3217 49.5501V64.0268H46.7325V49.5501C46.7325 47.3969 44.9863 45.6513 42.8337 45.6513Z" fill="#232323"/>
<path d="M32.028 49.2196C33.9979 49.2196 35.5956 47.6218 35.5956 45.6513H28.4597C28.4597 47.6218 30.0569 49.2196 32.028 49.2196Z" fill="#FED2BC"/>
<path d="M24.2054 59.1177H17.3217V64.0274H24.2054V59.1177Z" fill="#FED2BC"/>
<path d="M46.7325 59.1177H39.8489V64.0274H46.7325V59.1177Z" fill="#FED2BC"/>
<path d="M28.4603 40.2542H26.5252C24.1488 40.2542 22.6242 42.2058 22.6242 44.0816C22.6242 46.2193 22.6242 47.9478 22.6242 47.9478C22.6242 49.2795 22.6242 51.4915 25.5976 51.4915C25.5976 50.5399 25.5976 48.1618 25.5976 48.1618V44.6969C25.5976 43.3652 27.1588 43.2698 28.4597 43.2698C28.4597 42.4376 28.4603 40.2542 28.4603 40.2542Z" fill="#E81610"/>
<path d="M29.2047 47.8901H25.5422V52.6708H29.2047V47.8901Z" fill="#E81610"/>
<path d="M29.2012 47.8901C29.2012 48.901 28.3821 49.7196 27.3717 49.7196C26.3608 49.7196 25.5422 48.9005 25.5422 47.8901C25.5422 46.8792 26.3614 46.0606 27.3717 46.0606C28.3821 46.06 29.2012 46.8792 29.2012 47.8901Z" fill="#E81610"/>
<path d="M29.2012 52.5869C29.2012 53.5972 28.3821 54.4164 27.3717 54.4164C26.3608 54.4164 25.5422 53.5972 25.5422 52.5869C25.5422 51.5759 26.3614 50.7574 27.3717 50.7574C28.3821 50.7574 29.2012 51.5765 29.2012 52.5869Z" fill="#E81610"/>
<path d="M35.5979 40.2542H37.533C39.9094 40.2542 41.4341 42.2058 41.4341 44.0816C41.4341 46.2193 41.4341 47.9478 41.4341 47.9478C41.4341 49.2795 41.4341 51.4915 38.4606 51.4915C38.4606 50.5399 38.4606 48.1618 38.4606 48.1618V44.6969C38.4606 43.3652 36.8994 43.2698 35.5985 43.2698C35.5985 42.4376 35.5979 40.2542 35.5979 40.2542Z" fill="#E81610"/>
<path d="M38.516 47.8901H34.8536V52.6708H38.516V47.8901Z" fill="#E81610"/>
<path d="M34.857 47.8901C34.857 48.901 35.6761 49.7196 36.6865 49.7196C37.6969 49.7196 38.516 48.9005 38.516 47.8901C38.516 46.8792 37.6969 46.0606 36.6865 46.0606C35.6761 46.0606 34.857 46.8792 34.857 47.8901Z" fill="#E81610"/>
<path d="M34.857 52.5869C34.857 53.5972 35.6761 54.4164 36.6865 54.4164C37.6969 54.4164 38.516 53.5972 38.516 52.5869C38.516 51.5759 37.6969 50.7574 36.6865 50.7574C35.6761 50.7574 34.857 51.5765 34.857 52.5869Z" fill="#E81610"/>
<path d="M35.5956 38.4469H28.4597V45.6513H35.5956V38.4469Z" fill="#FED2BC"/>
<path d="M45.8894 29.5917C45.8894 31.2031 44.5827 32.5097 42.9707 32.5097C41.3599 32.5097 40.0532 31.2031 40.0532 29.5917C40.0532 27.9802 41.3599 26.6736 42.9707 26.6736C44.5827 26.6736 45.8894 27.9802 45.8894 29.5917Z" fill="#FED2BC"/>
<path d="M32.0103 42.6996C32.0103 42.6996 29.5414 42.8891 28.4375 42.9879C29.0608 43.9663 30.6888 44.6016 32.0103 44.6016C33.3529 44.6016 34.9597 43.9663 35.5831 42.9879C34.4791 42.8891 32.0103 42.6996 32.0103 42.6996Z" fill="#FF8F78"/>
<path d="M21.0841 32.5097C22.6957 32.5097 24.0021 31.2033 24.0021 29.5917C24.0021 27.9801 22.6957 26.6736 21.0841 26.6736C19.4725 26.6736 18.166 27.9801 18.166 29.5917C18.166 31.2033 19.4725 32.5097 21.0841 32.5097Z" fill="#FED2BC"/>
<path d="M42.953 31.3532C43.9146 31.3532 44.6941 30.5738 44.6941 29.6122C44.6941 28.6507 43.9146 27.8712 42.953 27.8712C41.9915 27.8712 41.212 28.6507 41.212 29.6122C41.212 30.5738 41.9915 31.3532 42.953 31.3532Z" fill="#FF8F78"/>
<path d="M21.0664 31.3532C22.0279 31.3532 22.8074 30.5738 22.8074 29.6122C22.8074 28.6507 22.0279 27.8712 21.0664 27.8712C20.1048 27.8712 19.3254 28.6507 19.3254 29.6122C19.3254 30.5738 20.1048 31.3532 21.0664 31.3532Z" fill="#FF8F78"/>
<path d="M42.9388 21.0287C42.606 15.2833 37.8555 10.7236 32.028 10.7236C26.1992 10.7236 21.4488 15.2833 21.1166 21.0287H21.0841V32.568H21.0858C21.0858 32.5817 21.0841 32.5965 21.0841 32.6102C21.0841 38.6541 25.984 43.5541 32.028 43.5541C38.0719 43.5541 42.9707 38.6541 42.9707 32.6102C42.9707 32.5965 42.9696 32.5817 42.9696 32.568H42.9707V21.0287H42.9388Z" fill="#FED2BC"/>
<path d="M28.1064 27.9956C28.1064 28.7257 27.5144 29.3177 26.7844 29.3177C26.0543 29.3177 25.4617 28.7257 25.4617 27.9956C25.4617 27.2656 26.0543 26.6736 26.7844 26.6736C27.5144 26.6736 28.1064 27.2656 28.1064 27.9956Z" fill="#232323"/>
<path d="M36.9748 29.3177C37.7049 29.3177 38.2968 28.7258 38.2968 27.9956C38.2968 27.2655 37.7049 26.6736 36.9748 26.6736C36.2446 26.6736 35.6527 27.2655 35.6527 27.9956C35.6527 28.7258 36.2446 29.3177 36.9748 29.3177Z" fill="#232323"/>
<path d="M28.1064 26.1353C28.0031 26.1353 27.9009 26.0919 27.829 26.0075C27.6657 25.8162 27.3095 25.6889 26.8985 25.6747C26.4219 25.6587 25.9447 25.7991 25.7215 26.0257C25.5799 26.169 25.3493 26.1713 25.2054 26.0303C25.0616 25.8887 25.0599 25.6581 25.2009 25.5143C25.5696 25.1387 26.2318 24.9189 26.9236 24.9451C27.5515 24.9668 28.0836 25.1815 28.3838 25.5331C28.5145 25.6866 28.4963 25.9167 28.3433 26.0474C28.2742 26.1062 28.1903 26.1353 28.1064 26.1353Z" fill="#232323"/>
<path d="M35.6527 26.1353C35.5688 26.1353 35.4849 26.1068 35.4158 26.048C35.2628 25.9167 35.2452 25.6867 35.3759 25.5337C35.6773 25.1815 36.2099 24.9674 36.8383 24.9463C37.5262 24.9166 38.1906 25.1409 38.5582 25.516C38.6992 25.6598 38.6969 25.8904 38.5531 26.0314C38.4098 26.173 38.1786 26.1713 38.0376 26.0263C37.815 25.8003 37.3389 25.6535 36.8634 25.6752C36.4519 25.6889 36.094 25.8162 35.9307 26.008C35.8577 26.0919 35.7555 26.1353 35.6527 26.1353Z" fill="#232323"/>
<path d="M32.028 40.2542C30.0575 40.2542 28.4603 38.6564 28.4603 36.6859H35.5956C35.5956 38.6564 33.9979 40.2542 32.028 40.2542Z" fill="#AA2618"/>
<path d="M32 7.02232C25.7968 7.02232 19.0616 11.8743 19.0616 20.2227C21.587 20.2227 32 20.2227 32 20.2227C32 20.2227 42.413 20.2227 44.9384 20.2227C44.9384 11.8743 38.2037 7.02232 32 7.02232Z" fill="#1E3658"/>
<path d="M32 13.6222C29.9884 13.6222 27.8033 15.196 27.8033 17.9034C28.623 17.9034 32 17.9034 32 17.9034C32 17.9034 35.377 17.9034 36.1967 17.9034C36.1967 15.196 34.0122 13.6222 32 13.6222Z" fill="#FFBD1A"/>
<path d="M19.0205 22.8416C19.0205 23.0215 19.0205 23.1933 19.0205 23.3885V26.8854C19.0205 26.8854 20.205 26.8854 20.9876 26.8854C21.5955 26.8854 21.9272 26.3979 21.9272 25.7591C21.9272 25.0445 21.9272 23.3885 21.9272 23.3885C21.9306 23.3885 21.9352 23.3885 21.9392 23.3885C21.9392 22.1886 22.1213 21.1326 22.4335 20.2227H19.0205C19.0205 20.8826 19.0205 21.7183 19.0205 22.8416Z" fill="#FFBD1A"/>
<path d="M41.5214 20.2227C41.8365 21.1354 42.0203 22.1949 42.0203 23.3999C42.0243 23.3999 42.0283 23.3999 42.0323 23.3999C42.0323 23.3999 42.0323 25.0559 42.0323 25.7706C42.0323 26.4087 42.3634 26.8962 42.9719 26.8962C43.7545 26.8962 44.9384 26.8962 44.9384 26.8962V23.3999C44.9384 23.2041 44.9384 23.0323 44.9384 22.8525C44.9384 21.7234 44.9384 20.8837 44.9384 20.2227H41.5214Z" fill="#FFBD1A"/>
<path d="M49.7864 17.1785H43.5073V20.2227H49.7864V17.1785Z" fill="#1E3658"/>
<path d="M51.3088 18.7003C51.3088 19.5411 50.6272 20.2227 49.7864 20.2227C48.9456 20.2227 48.2646 19.5411 48.2646 18.7003C48.2646 17.8595 48.9456 17.1779 49.7864 17.1779C50.6267 17.1785 51.3088 17.86 51.3088 18.7003Z" fill="#1E3658"/>
<path d="M37.5262 53.9369H37.0621V63.9977H37.5262V53.9369Z" fill="#E81610"/>
<path d="M32.0051 33.5481C31.2545 33.5481 30.606 33.1337 30.2567 32.5257C30.2961 33.4607 31.0604 34.208 32.0051 34.208C32.9487 34.208 33.7136 33.4602 33.753 32.5257C33.4037 33.1342 32.7558 33.5481 32.0051 33.5481Z" fill="#FF8F78"/>
</g>
</svg>
