<svg width="64" height="64" viewBox="0 0 64 64" fill="none" xmlns="http://www.w3.org/2000/svg">
<path d="M64 31.9997C64 49.6733 49.6734 64 32 64C14.3278 64 0 49.6733 0 31.9997C0 14.3262 14.3278 0 32 0C49.6734 0 64 14.3262 64 31.9997Z" fill="#992871"/>
<mask id="mask0_2_381" style="mask-type:luminance" maskUnits="userSpaceOnUse" x="0" y="0" width="64" height="64">
<path d="M64 31.9997C64 49.6733 49.6734 64 32 64C14.3278 64 0 49.6733 0 31.9997C0 14.3262 14.3278 0 32 0C49.6734 0 64 14.3262 64 31.9997Z" fill="white"/>
</mask>
<g mask="url(#mask0_2_381)">
<path d="M31.9606 39.6751H19.6787L24.2602 48.164H31.9606H39.6611L44.2431 39.6751H31.9606Z" fill="#232323"/>
<path d="M35.53 38.7527H28.3947V46.0211H35.53V38.7527Z" fill="#FED2BC"/>
<path d="M42.7681 45.9571H38.1021H35.53H28.3946H21.1543C19.0017 45.9571 17.2555 47.7027 17.2555 49.8554V64.3328H46.6651V49.8554C46.6657 47.7027 44.9207 45.9571 42.7681 45.9571Z" fill="#232323"/>
<path d="M31.9703 43.0014C31.9703 43.0014 29.5015 43.1909 28.3969 43.2896C29.0208 44.268 30.6483 44.9034 31.9703 44.9034C33.3129 44.9034 34.9192 44.268 35.5431 43.2896C34.4386 43.1909 31.9703 43.0014 31.9703 43.0014Z" fill="#FF8F78"/>
<path d="M45.8237 29.8973C45.8237 31.5088 44.5171 32.8154 42.9062 32.8154C41.2942 32.8154 39.9876 31.5088 39.9876 29.8973C39.9876 28.2859 41.2942 26.9792 42.9062 26.9792C44.5171 26.9792 45.8237 28.2859 45.8237 29.8973Z" fill="#FED2BC"/>
<path d="M23.9376 29.8973C23.9376 31.5088 22.631 32.8154 21.019 32.8154C19.4081 32.8154 18.1015 31.5088 18.1015 29.8973C18.1015 28.2859 19.4081 26.9792 21.019 26.9792C22.6304 26.9792 23.9376 28.2859 23.9376 29.8973Z" fill="#FED2BC"/>
<path d="M42.9131 31.6555C43.8746 31.6555 44.6541 30.876 44.6541 29.9145C44.6541 28.9529 43.8746 28.1734 42.9131 28.1734C41.9515 28.1734 41.172 28.9529 41.172 29.9145C41.172 30.876 41.9515 31.6555 42.9131 31.6555Z" fill="#FF8F78"/>
<path d="M22.7669 29.9145C22.7669 30.8763 21.9877 31.6555 21.0264 31.6555C20.0646 31.6555 19.2848 30.8763 19.2848 29.9145C19.2848 28.9532 20.0646 28.1734 21.0264 28.1734C21.9877 28.1734 22.7669 28.9526 22.7669 29.9145Z" fill="#FF8F78"/>
<path d="M42.8725 21.3337C42.5403 15.5883 37.7899 11.0285 31.9623 11.0285C26.1336 11.0285 21.3843 15.5883 21.051 21.3337H21.0184V32.8731H21.0207C21.0207 32.8874 21.0184 32.9016 21.0184 32.9159C21.0184 38.9599 25.9173 43.8593 31.9623 43.8593C38.0051 43.8593 42.9062 38.9599 42.9062 32.9159C42.9062 32.9016 42.9039 32.8874 42.9039 32.8731H42.9062V21.3337H42.8725Z" fill="#FED2BC"/>
<path d="M26.7193 29.6234C27.4494 29.6234 28.0413 29.0314 28.0413 28.3013C28.0413 27.5712 27.4494 26.9792 26.7193 26.9792C25.9891 26.9792 25.3972 27.5712 25.3972 28.3013C25.3972 29.0314 25.9891 29.6234 26.7193 29.6234Z" fill="#232323"/>
<path d="M38.2323 28.3013C38.2323 29.0314 37.6392 29.6234 36.9091 29.6234C36.179 29.6234 35.5871 29.0314 35.5871 28.3013C35.5871 27.5712 36.179 26.9792 36.9091 26.9792C37.6392 26.9792 38.2323 27.5712 38.2323 28.3013Z" fill="#232323"/>
<path d="M28.0413 26.4398C27.9386 26.4398 27.8364 26.397 27.7645 26.312C27.6006 26.1207 27.2433 25.9929 26.8306 25.9792C26.3505 25.9672 25.879 26.1042 25.657 26.3302C25.5165 26.4741 25.2853 26.4769 25.1415 26.3354C24.9977 26.1949 24.9954 25.9637 25.1364 25.8199C25.504 25.4454 26.169 25.2331 26.8557 25.2502C27.4842 25.2713 28.0173 25.486 28.3187 25.8382C28.4494 25.9911 28.4317 26.2212 28.2788 26.3519C28.2097 26.4113 28.1252 26.4398 28.0413 26.4398Z" fill="#232323"/>
<path d="M35.5865 26.4398C35.5026 26.4398 35.4181 26.4113 35.3496 26.3525C35.1961 26.2218 35.1784 25.9911 35.3097 25.8387C35.6105 25.4865 36.1431 25.2725 36.771 25.2508C37.4702 25.2279 38.1244 25.4454 38.4926 25.8205C38.6336 25.9643 38.6313 26.1949 38.4875 26.3359C38.3447 26.4775 38.1136 26.4752 37.972 26.3308C37.7494 26.1047 37.275 25.9689 36.7961 25.9797C36.384 25.994 36.0272 26.1213 35.8634 26.3125C35.792 26.397 35.6893 26.4398 35.5865 26.4398Z" fill="#232323"/>
<path d="M31.9623 40.5594C29.9913 40.5594 28.3947 38.9622 28.3947 36.9911H35.53C35.53 38.9622 33.9334 40.5594 31.9623 40.5594Z" fill="#AA2618"/>
<path d="M44.8727 16.6957C44.8727 12.9442 42.6082 9.51864 37.2202 9.51864C36.2481 9.51864 34.9637 9.51864 34.2034 9.51864V9.50665H30.2635C30.2635 9.50665 30.0963 9.50665 29.8263 9.50665C29.115 9.50665 27.6726 9.50665 26.6074 9.50665C21.2194 9.50665 18.9549 12.9322 18.9549 16.6843C18.9549 18.6314 18.9549 18.2689 18.9549 23.1461H21.8924C22.0864 19.0207 24.4497 16.6843 27.0709 16.6843H29.8257H30.263H33.5641V16.6957H36.7561C39.3751 16.6957 41.7377 19.0287 41.9347 23.1467H44.8727C44.8727 18.2826 44.8727 18.6422 44.8727 16.6957Z" fill="#FFBD1A"/>
<path d="M18.9549 23.6935V27.1904C18.9549 27.1904 20.1399 27.1904 20.9214 27.1904C21.5299 27.1904 21.8615 26.703 21.8615 26.0648C21.8615 25.3501 21.8615 23.6935 21.8615 23.6935C21.8661 23.6935 21.8695 23.6935 21.8735 23.6935C21.8735 23.5063 21.8838 23.3276 21.8924 23.1467H18.9549C18.9549 23.3271 18.9549 23.4983 18.9549 23.6935Z" fill="#FFBD1A"/>
<path d="M41.9352 23.1467C41.9444 23.3311 41.9552 23.5132 41.9552 23.705C41.9586 23.705 41.9632 23.705 41.9666 23.705C41.9666 23.705 41.9666 25.361 41.9666 26.0756C41.9666 26.7144 42.2977 27.2019 42.9062 27.2019C43.6877 27.2019 44.8727 27.2019 44.8727 27.2019V23.705C44.8727 23.5097 44.8727 23.3379 44.8727 23.1575C44.8727 23.1535 44.8727 23.1507 44.8727 23.1461H41.9352V23.1467Z" fill="#FFBD1A"/>
<path d="M24.3903 60.3661H17.2561V64.3328H24.3903V60.3661Z" fill="#FED2BC"/>
<path d="M46.6657 60.3661H39.5326V64.3328H46.6657V60.3661Z" fill="#FED2BC"/>
<path d="M35.53 46.266H28.3947V64.3328H35.53V46.266Z" fill="#AA2618"/>
<path d="M31.9623 49.5248C33.9334 49.5248 35.53 47.9277 35.53 45.9571H28.3947C28.3947 47.9277 29.9913 49.5248 31.9623 49.5248Z" fill="#FED2BC"/>
<path d="M24.3903 58.2226H17.2561V60.6846H24.3903V58.2226Z" fill="white"/>
<path d="M46.6634 58.2226H39.5326V60.6846H46.6634V58.2226Z" fill="white"/>
<path d="M31.9138 16.327H26.7963V16.6963C28.4021 16.6963 29.5026 18.2444 31.9138 18.2444C34.325 18.2444 35.425 16.6963 37.0313 16.6963V16.327H31.9138Z" fill="#FFBD1A"/>
<path d="M37.2174 24.7456H33.0977C33.0977 26.937 33.0977 28.2802 33.0977 28.2802C33.0977 29.8871 33.8957 31.8581 37.2174 31.8581C40.5384 31.8581 41.337 29.8871 41.337 28.2802C41.337 28.2802 41.337 26.937 41.337 24.7456H37.2174Z" fill="#232323"/>
<path d="M26.7193 24.7456H22.5996C22.5996 26.937 22.5996 28.2802 22.5996 28.2802C22.5996 29.8871 23.3976 31.8581 26.7193 31.8581C30.0403 31.8581 30.8389 29.8871 30.8389 28.2802C30.8389 28.2802 30.8389 26.937 30.8389 24.7456H26.7193Z" fill="#232323"/>
<path d="M33.5601 25.7211H30.4405V26.9792H33.5601V25.7211Z" fill="#232323"/>
<path d="M35.5203 45.7865H28.3947V46.2157H35.5203V45.7865Z" fill="#FED2BC"/>
<path d="M31.9646 33.8504C31.2145 33.8504 30.5661 33.4365 30.2162 32.828C30.2561 33.763 31.0199 34.5102 31.9646 34.5102C32.9093 34.5102 33.6737 33.7624 33.7131 32.828C33.3637 33.4365 32.7152 33.8504 31.9646 33.8504Z" fill="#FF8F78"/>
<path d="M33.1839 9.50721C35.5146 9.50721 40.8901 7.62404 42.5072 4.48447C43.8869 5.9595 44.8636 11.3299 44.8636 16.327C42.9833 16.327 33.1839 16.327 33.1839 16.327V9.50721Z" fill="#FFBD1A"/>
</g>
</svg>
