<svg width="64" height="64" viewBox="0 0 64 64" fill="none" xmlns="http://www.w3.org/2000/svg">
<path d="M32 64C49.6731 64 64 49.6731 64 32C64 14.3269 49.6731 0 32 0C14.3269 0 0 14.3269 0 32C0 49.6731 14.3269 64 32 64Z" fill="#F8DB0B"/>
<mask id="mask0_2_62" style="mask-type:luminance" maskUnits="userSpaceOnUse" x="0" y="0" width="64" height="64">
<path d="M32 64C49.6731 64 64 49.6731 64 32C64 14.3269 49.6731 0 32 0C14.3269 0 0 14.3269 0 32C0 49.6731 14.3269 64 32 64Z" fill="white"/>
</mask>
<g mask="url(#mask0_2_62)">
<path d="M44.863 22.6487C44.863 7.86543 35.2554 8.0909 31.96 8.09262C28.6641 8.0909 18.9126 7.86543 18.9126 22.6487C22.3918 22.6487 41.3838 22.6487 44.863 22.6487Z" fill="#AF522E"/>
<path d="M18.9121 22.6487C18.9121 25.3128 18.8247 30.09 16.5414 34.8844C14.6383 38.6319 16.6293 43.7014 19.4395 44.4492C22.2497 44.4492 31.871 44.4492 31.871 44.4492V22.6493H18.9121V22.6487Z" fill="#AF522E"/>
<path d="M44.863 22.6487C44.863 25.3128 44.9504 30.09 47.2337 34.8844C49.1368 38.6319 47.1458 43.7014 44.3356 44.4492C41.5254 44.4492 31.9041 44.4492 31.9041 44.4492V22.6493H44.863V22.6487Z" fill="#AF522E"/>
<path d="M35.4872 39.1513H28.3507V46.3557H35.4872V39.1513Z" fill="#FED2BC"/>
<path d="M31.899 43.3954C31.899 43.3954 29.4301 43.5849 28.3262 43.6843C28.9495 44.6621 30.5775 45.2974 31.899 45.2974C33.2415 45.2974 34.8484 44.6621 35.4718 43.6843C34.3678 43.5849 31.899 43.3954 31.899 43.3954Z" fill="#FF8F78"/>
<path d="M42.7241 46.3557H38.0593H35.4872H28.3507H21.1115C18.9589 46.3557 17.2127 48.1019 17.2127 50.2545V64.7312H46.6223V50.2545C46.6229 48.1019 44.8773 46.3557 42.7241 46.3557Z" fill="#1E3658"/>
<path d="M39.7404 46.3557H24.0963V64.7312H39.7404V46.3557Z" fill="#FF5955"/>
<path d="M31.9184 49.924C33.8894 49.924 35.4872 48.3262 35.4872 46.3557H28.3507C28.3507 48.3262 29.9484 49.924 31.9184 49.924Z" fill="#FED2BC"/>
<path d="M45.7803 30.2955C45.7803 31.907 44.4737 33.2136 42.8628 33.2136C41.2508 33.2136 39.9442 31.907 39.9442 30.2955C39.9442 28.6841 41.2508 27.378 42.8628 27.378C44.4737 27.378 45.7803 28.6841 45.7803 30.2955Z" fill="#FED2BC"/>
<path d="M23.8937 30.2955C23.8937 31.907 22.5871 33.2136 20.9762 33.2136C19.3642 33.2136 18.0575 31.907 18.0575 30.2955C18.0575 28.6841 19.3642 27.378 20.9762 27.378C22.5871 27.378 23.8937 28.6841 23.8937 30.2955Z" fill="#FED2BC"/>
<path d="M44.5827 30.3081C44.5827 31.2693 43.803 32.0485 42.8417 32.0485C41.8804 32.0485 41.1007 31.2693 41.1007 30.3081C41.1007 29.3462 41.8804 28.567 42.8417 28.567C43.803 28.567 44.5827 29.3468 44.5827 30.3081Z" fill="#FF8F78"/>
<path d="M22.6961 30.3081C22.6961 31.2693 21.9163 32.0485 20.9551 32.0485C19.9938 32.0485 19.214 31.2693 19.214 30.3081C19.214 29.3462 19.9938 28.567 20.9551 28.567C21.9163 28.567 22.6961 29.3468 22.6961 30.3081Z" fill="#FF8F78"/>
<path d="M42.8303 21.7331C42.4981 15.9877 37.7477 11.428 31.9189 11.428C26.0914 11.428 21.3409 15.9877 21.0081 21.7331H20.9762V33.2724H20.9773C20.9773 33.2861 20.9762 33.3009 20.9762 33.3146C20.9762 39.358 25.8756 44.2585 31.9189 44.2585C37.9629 44.2585 42.8628 39.358 42.8628 33.3146C42.8628 33.3009 42.8617 33.2861 42.8617 33.2724H42.8628V21.7331H42.8303Z" fill="#FED2BC"/>
<path d="M27.9974 28.6995C27.9974 29.4301 27.4054 30.0215 26.6753 30.0215C25.9452 30.0215 25.3533 29.4301 25.3533 28.6995C25.3533 27.97 25.9452 27.378 26.6753 27.378C27.4054 27.378 27.9974 27.97 27.9974 28.6995Z" fill="#232323"/>
<path d="M38.1889 28.6995C38.1889 29.4301 37.597 30.0215 36.8669 30.0215C36.1368 30.0215 35.5448 29.4301 35.5448 28.6995C35.5448 27.97 36.1368 27.378 36.8669 27.378C37.597 27.378 38.1889 27.97 38.1889 28.6995Z" fill="#232323"/>
<path d="M31.9184 40.3883C33.8894 40.3883 35.4872 38.7911 35.4872 36.8206H28.3518C28.3518 38.7911 29.9496 40.3883 31.9184 40.3883Z" fill="#AA3727"/>
<path d="M27.9979 26.8392C27.8946 26.8392 27.7924 26.7958 27.7199 26.7113C27.5572 26.5201 27.2005 26.3928 26.7895 26.3785C26.3106 26.3631 25.8362 26.5029 25.613 26.7296C25.4714 26.8728 25.2403 26.8751 25.097 26.7341C24.9531 26.5931 24.9514 26.3619 25.0924 26.2181C25.46 25.8431 26.1182 25.6204 26.8146 25.649C27.4425 25.6707 27.9745 25.8853 28.2748 26.2369C28.4055 26.3905 28.3872 26.6205 28.2342 26.7512C28.1657 26.8106 28.0818 26.8392 27.9979 26.8392Z" fill="#232323"/>
<path d="M35.5443 26.8392C35.4603 26.8392 35.3759 26.8106 35.3074 26.7518C35.1544 26.6211 35.1361 26.3905 35.2668 26.2375C35.5671 25.8859 36.0991 25.6712 36.727 25.6495C37.4166 25.6204 38.081 25.8431 38.4498 26.2187C38.5908 26.3625 38.5885 26.5937 38.4446 26.7347C38.3014 26.8757 38.0702 26.874 37.9292 26.7301C37.7066 26.5035 37.2448 26.3642 36.7521 26.3791C36.3411 26.3933 35.9849 26.5206 35.8223 26.7119C35.7492 26.7958 35.647 26.8392 35.5443 26.8392Z" fill="#232323"/>
<path d="M36.0677 16.3765C36.0677 18.9886 35.0465 22.8319 30.4942 24.3098C28.8005 24.3098 20.5977 24.3098 20.5378 24.3098C20.4773 24.3098 20.5378 16.1795 20.5378 16.1795L36.0677 16.3765Z" fill="#AF522E"/>
<path d="M36.0677 16.3765V11.428L31.871 10.1619L23.1767 13.2689L21.821 16.7977L35.4872 17.1545L36.0677 16.3765Z" fill="#AF522E"/>
<path d="M35.8445 16.1533C35.8445 19.0485 39.834 24.3098 42.8623 24.3098C43.7796 23.3925 43.432 11.7339 35.8445 11.2048C35.8445 12.9595 35.8445 16.1533 35.8445 16.1533Z" fill="#AF522E"/>
<path d="M20.4373 32.9133C20.4373 33.4185 20.028 33.8278 19.524 33.8278C19.0194 33.8278 18.6101 33.4185 18.6101 32.9133C18.6101 32.4087 19.0194 31.9994 19.524 31.9994C20.028 32 20.4373 32.4087 20.4373 32.9133Z" fill="#FFBD1A"/>
<path d="M45.3631 32.9133C45.3631 33.4185 44.9538 33.8278 44.4492 33.8278C43.9446 33.8278 43.5353 33.4185 43.5353 32.9133C43.5353 32.4087 43.9446 31.9994 44.4492 31.9994C44.9538 32 45.3631 32.4087 45.3631 32.9133Z" fill="#FFBD1A"/>
<path d="M31.8938 34.2439C31.1432 34.2439 30.4947 33.8301 30.1454 33.2216C30.1848 34.1572 30.9491 34.9038 31.8938 34.9038C32.838 34.9038 33.6029 34.1566 33.6417 33.2216C33.2929 33.8306 32.6445 34.2439 31.8938 34.2439Z" fill="#FF8F78"/>
</g>
</svg>
