<svg width="64" height="64" viewBox="0 0 64 64" fill="none" xmlns="http://www.w3.org/2000/svg">
<path d="M32 64C49.6731 64 64 49.6731 64 32C64 14.3269 49.6731 0 32 0C14.3269 0 0 14.3269 0 32C0 49.6731 14.3269 64 32 64Z" fill="#35AD60"/>
<mask id="mask0_2_120" style="mask-type:luminance" maskUnits="userSpaceOnUse" x="0" y="0" width="64" height="64">
<path d="M32 64C49.6731 64 64 49.6731 64 32C64 14.3269 49.6731 0 32 0C14.3269 0 0 14.3269 0 32C0 49.6731 14.3269 64 32 64Z" fill="white"/>
</mask>
<g mask="url(#mask0_2_120)">
<path d="M46.3078 23.2195H17.4673V43.7687H46.3078V23.2195Z" fill="#232323"/>
<path d="M46.3078 24.3098C46.3078 7.8797 35.6305 8.13087 31.968 8.13258C28.3045 8.13087 17.4673 7.8797 17.4673 24.3098C21.3341 24.3098 42.441 24.3098 46.3078 24.3098Z" fill="#232323"/>
<path d="M35.4872 39.1513H28.3507V46.3557H35.4872V39.1513Z" fill="#FED2BC"/>
<path d="M42.7241 46.3557H38.0593H35.4872H28.3507H21.1115C18.9583 46.3557 17.2127 48.1019 17.2127 50.2545V64.7312H46.6229V50.2545C46.6229 48.1019 44.8767 46.3557 42.7241 46.3557Z" fill="#CC1F38"/>
<path d="M35.4872 46.3557H28.3507V64.7312H35.4872V46.3557Z" fill="white"/>
<path d="M31.9184 49.924C33.8894 49.924 35.4872 48.3262 35.4872 46.3557H28.3507C28.3507 48.3262 29.9485 49.924 31.9184 49.924Z" fill="#FED2BC"/>
<path d="M45.7798 30.2955C45.7798 31.907 44.4732 33.2136 42.8623 33.2136C41.2503 33.2136 39.9436 31.907 39.9436 30.2955C39.9436 28.6841 41.2503 27.378 42.8623 27.378C44.4732 27.378 45.7798 28.6841 45.7798 30.2955Z" fill="#FED2BC"/>
<path d="M23.8931 30.2955C23.8931 31.907 22.5865 33.2136 20.9756 33.2136C19.3636 33.2136 18.057 31.907 18.057 30.2955C18.057 28.6841 19.3636 27.378 20.9756 27.378C22.5865 27.378 23.8931 28.6841 23.8931 30.2955Z" fill="#FED2BC"/>
<path d="M44.613 30.2767C44.613 31.2385 43.8333 32.0177 42.872 32.0177C41.9107 32.0177 41.131 31.2385 41.131 30.2767C41.131 29.3148 41.9107 28.5357 42.872 28.5357C43.8333 28.5357 44.613 29.3148 44.613 30.2767Z" fill="#FF8F78"/>
<path d="M22.7258 30.2767C22.7258 31.2385 21.9466 32.0177 20.9853 32.0177C20.0235 32.0177 19.2437 31.2385 19.2437 30.2767C19.2437 29.3148 20.0235 28.5357 20.9853 28.5357C21.9466 28.5357 22.7258 29.3148 22.7258 30.2767Z" fill="#FF8F78"/>
<path d="M31.9292 43.364C31.9292 43.364 29.4604 43.5535 28.3559 43.6523C28.9798 44.6307 30.6072 45.266 31.9292 45.266C33.2718 45.266 34.8781 44.6307 35.502 43.6523C34.398 43.5535 31.9292 43.364 31.9292 43.364Z" fill="#FF8F78"/>
<path d="M42.8297 21.7331C42.4975 15.9877 37.7471 11.428 31.9184 11.428C26.0908 11.428 21.3404 15.9877 21.0076 21.7331H20.9756V33.2724H20.9768C20.9768 33.2861 20.9756 33.3009 20.9756 33.3146C20.9756 39.358 25.875 44.2585 31.9184 44.2585C37.9623 44.2585 42.8623 39.358 42.8623 33.3146C42.8623 33.3009 42.8611 33.2861 42.8611 33.2724H42.8623V21.7331H42.8297Z" fill="#FED2BC"/>
<path d="M27.9974 28.6995C27.9974 29.4301 27.4054 30.0215 26.6753 30.0215C25.9452 30.0215 25.3533 29.4301 25.3533 28.6995C25.3533 27.97 25.9452 27.378 26.6753 27.378C27.4054 27.378 27.9974 27.97 27.9974 28.6995Z" fill="#232323"/>
<path d="M38.1883 28.6995C38.1883 29.4301 37.5964 30.0215 36.8663 30.0215C36.1362 30.0215 35.5443 29.4301 35.5443 28.6995C35.5443 27.97 36.1362 27.378 36.8663 27.378C37.5964 27.378 38.1883 27.97 38.1883 28.6995Z" fill="#232323"/>
<path d="M31.9184 40.3883C33.8894 40.3883 35.4872 38.7911 35.4872 36.8206H28.3518C28.3518 38.7911 29.9496 40.3883 31.9184 40.3883Z" fill="#AA3727"/>
<path d="M27.9974 26.8392C27.8941 26.8392 27.7924 26.7958 27.7199 26.7113C27.5573 26.5201 27.2011 26.3928 26.7901 26.3785C26.3009 26.3631 25.8356 26.5029 25.6136 26.7296C25.4732 26.8734 25.242 26.8751 25.0981 26.7341C24.9543 26.5931 24.952 26.3619 25.093 26.2181C25.4618 25.8431 26.1142 25.621 26.8158 25.649C27.4437 25.6707 27.9751 25.8853 28.2759 26.2369C28.4066 26.3905 28.3884 26.6205 28.2354 26.7512C28.1652 26.8106 28.0813 26.8392 27.9974 26.8392Z" fill="#232323"/>
<path d="M35.5437 26.8392C35.4598 26.8392 35.3753 26.8106 35.3068 26.7518C35.1533 26.6211 35.1355 26.3905 35.2663 26.2375C35.5665 25.8859 36.0985 25.6712 36.7265 25.6495C37.416 25.6204 38.0805 25.8431 38.4492 26.2187C38.5902 26.3625 38.5879 26.5937 38.4441 26.7347C38.3014 26.8757 38.0702 26.874 37.9286 26.7301C37.706 26.5035 37.2442 26.3642 36.7521 26.3791C36.3411 26.3933 35.9849 26.5206 35.8223 26.7119C35.7492 26.7958 35.647 26.8392 35.5437 26.8392Z" fill="#232323"/>
<path d="M36.0677 16.3765C36.0677 18.9886 35.0465 22.8319 30.4942 24.3098C28.8005 24.3098 20.5977 24.3098 20.5378 24.3098C20.4773 24.3098 20.5378 16.1795 20.5378 16.1795L36.0677 16.3765Z" fill="#232323"/>
<path d="M36.0677 16.3765V11.428L31.871 10.1619L23.1762 13.2689L21.8204 16.7977L35.4872 17.1545L36.0677 16.3765Z" fill="#232323"/>
<path d="M35.8445 16.1533C35.8445 19.0485 39.834 24.3098 42.8623 24.3098C43.7796 23.3925 43.4319 11.7339 35.8445 11.2048C35.8445 12.9595 35.8445 16.1533 35.8445 16.1533Z" fill="#232323"/>
<path d="M24.1277 58.2061H17.2127V64.7318H24.1277V58.2061Z" fill="#FF8F78"/>
<path d="M46.6223 58.2061H39.7073V64.7318H46.6223V58.2061Z" fill="#FF8F78"/>
<path d="M28.3507 46.3557H23.0574L28.3507 60.3587V46.3557Z" fill="#FF5955"/>
<path d="M35.4866 46.3557H40.7793L35.4866 60.3587V46.3557Z" fill="#FF5955"/>
<path d="M31.9241 34.2131C31.1735 34.2131 30.5256 33.7987 30.1756 33.1907C30.2156 34.1258 30.9794 34.873 31.9241 34.873C32.8688 34.873 33.6331 34.1252 33.6725 33.1907C33.3232 33.7987 32.6747 34.2131 31.9241 34.2131Z" fill="#FF8F78"/>
</g>
</svg>
