<svg width="64" height="64" viewBox="0 0 64 64" fill="none" xmlns="http://www.w3.org/2000/svg">
<path d="M32 64C49.6731 64 64 49.6731 64 32C64 14.3269 49.6731 0 32 0C14.3269 0 0 14.3269 0 32C0 49.6731 14.3269 64 32 64Z" fill="#60B7E8"/>
<mask id="mask0_2_511" style="mask-type:luminance" maskUnits="userSpaceOnUse" x="0" y="0" width="64" height="64">
<path d="M32 64C49.6731 64 64 49.6731 64 32C64 14.3269 49.6731 0 32 0C14.3269 0 0 14.3269 0 32C0 49.6731 14.3269 64 32 64Z" fill="white"/>
</mask>
<g mask="url(#mask0_2_511)">
<path d="M19.9641 43.6443C24.4723 43.6443 28.1269 39.9897 28.1269 35.4815C28.1269 30.9733 24.4723 27.3186 19.9641 27.3186C15.4559 27.3186 11.8013 30.9733 11.8013 35.4815C11.8013 39.9897 15.4559 43.6443 19.9641 43.6443Z" fill="#D63D1A"/>
<path d="M21.1046 27.3186C21.1046 28.6144 20.0543 29.6647 18.7585 29.6647C17.4627 29.6647 16.413 28.6144 16.413 27.3186C16.413 26.0229 17.4633 24.9725 18.7585 24.9725C20.0543 24.9725 21.1046 26.0229 21.1046 27.3186Z" fill="#F8DB0B"/>
<path d="M43.8361 43.6443C48.3443 43.6443 51.9989 39.9897 51.9989 35.4815C51.9989 30.9733 48.3443 27.3186 43.8361 27.3186C39.3279 27.3186 35.6733 30.9733 35.6733 35.4815C35.6733 39.9897 39.3279 43.6443 43.8361 43.6443Z" fill="#D63D1A"/>
<path d="M47.4369 27.3186C47.4369 28.6144 46.3866 29.6647 45.0908 29.6647C43.795 29.6647 42.7452 28.6144 42.7452 27.3186C42.7452 26.0229 43.7956 24.9725 45.0908 24.9725C46.3866 24.9725 47.4369 26.0229 47.4369 27.3186Z" fill="#F8DB0B"/>
<path d="M35.6168 39.0919H28.4803V46.2964H35.6168V39.0919Z" fill="#FED2BC"/>
<path d="M32.0371 43.3024C32.0371 43.3024 29.5683 43.4919 28.4643 43.5906C29.0876 44.569 30.7156 45.2044 32.0371 45.2044C33.3797 45.2044 34.986 44.569 35.6099 43.5906C34.5054 43.4919 32.0371 43.3024 32.0371 43.3024Z" fill="#FF8F78"/>
<path d="M42.8537 46.2964H38.1889H35.6168H28.4803H21.2399C19.0873 46.2964 17.3412 48.042 17.3412 50.1951V64.6719H46.7519V50.1951C46.7525 48.042 45.0063 46.2964 42.8537 46.2964Z" fill="#F8DB0B"/>
<path d="M35.6168 46.5475H28.4803V64.6724H35.6168V46.5475Z" fill="#3F751C"/>
<path d="M32.0479 49.8646C34.019 49.8646 35.6168 48.2669 35.6168 46.2964H28.4803C28.4803 48.2669 30.078 49.8646 32.0479 49.8646Z" fill="#FED2BC"/>
<path d="M45.9093 30.2367C45.9093 31.8482 44.6027 33.1548 42.9918 33.1548C41.3798 33.1548 40.0732 31.8482 40.0732 30.2367C40.0732 28.6253 41.3798 27.3186 42.9918 27.3186C44.6027 27.3186 45.9093 28.6253 45.9093 30.2367Z" fill="#FED2BC"/>
<path d="M24.0227 30.2367C24.0227 31.8482 22.7161 33.1548 21.1052 33.1548C19.4932 33.1548 18.1866 31.8482 18.1866 30.2367C18.1866 28.6253 19.4932 27.3186 21.1052 27.3186C22.7161 27.3186 24.0227 28.6253 24.0227 30.2367Z" fill="#FED2BC"/>
<path d="M42.9793 31.956C43.9408 31.956 44.7203 31.1766 44.7203 30.215C44.7203 29.2535 43.9408 28.474 42.9793 28.474C42.0177 28.474 41.2383 29.2535 41.2383 30.215C41.2383 31.1766 42.0177 31.956 42.9793 31.956Z" fill="#FF8F78"/>
<path d="M21.0926 31.956C22.0542 31.956 22.8337 31.1766 22.8337 30.215C22.8337 29.2535 22.0542 28.474 21.0926 28.474C20.1311 28.474 19.3516 29.2535 19.3516 30.215C19.3516 31.1766 20.1311 31.956 21.0926 31.956Z" fill="#FF8F78"/>
<path d="M42.9593 21.6737C42.6271 15.9289 37.8767 11.3692 32.0479 11.3692C26.2192 11.3692 21.47 15.9289 21.1366 21.6737H21.1052V33.213H21.1063C21.1063 33.2273 21.1052 33.2415 21.1052 33.2558C21.1052 39.2997 26.004 44.1991 32.0479 44.1991C38.0919 44.1991 42.9918 39.2997 42.9918 33.2558C42.9918 33.2415 42.9907 33.2273 42.9907 33.213H42.9918V21.6737H42.9593Z" fill="#FED2BC"/>
<path d="M26.8043 29.9633C27.5345 29.9633 28.1264 29.3714 28.1264 28.6413C28.1264 27.9111 27.5345 27.3192 26.8043 27.3192C26.0742 27.3192 25.4823 27.9111 25.4823 28.6413C25.4823 29.3714 26.0742 29.9633 26.8043 29.9633Z" fill="#232323"/>
<path d="M38.3179 28.6413C38.3179 29.3713 37.7248 29.9633 36.9959 29.9633C36.2646 29.9633 35.6738 29.3713 35.6738 28.6413C35.6738 27.9112 36.2646 27.3192 36.9959 27.3192C37.7248 27.3186 38.3179 27.9106 38.3179 28.6413Z" fill="#232323"/>
<path d="M32.0479 40.3295C34.019 40.3295 35.6168 38.7323 35.6168 36.7613H28.4803C28.4803 38.7323 30.078 40.3295 32.0479 40.3295Z" fill="#AA3727"/>
<path d="M37.3058 9.85819C36.3349 9.85819 35.0494 9.85819 34.2902 9.85819V9.84677H30.3492C30.3492 9.84677 30.1819 9.84677 29.9131 9.84677C29.2007 9.84677 27.7593 9.84677 26.693 9.84677C21.305 9.84677 19.0405 13.2723 19.0405 17.0244C19.0405 18.9714 19.0405 18.6095 19.0405 23.4861C19.0405 23.6665 19.0405 23.8383 19.0405 24.0335V27.5299C19.0405 27.5299 20.2255 27.5299 21.0081 27.5299C21.6167 27.5299 21.9477 27.0424 21.9477 26.4042C21.9477 25.6895 21.9477 24.0335 21.9477 24.0335C21.9512 24.0335 21.9557 24.0335 21.9591 24.0335C21.9591 20.862 23.2013 18.6678 24.8989 17.6574V22.9809H39.1941V17.7236C40.8444 18.7585 42.0403 20.9317 42.0403 24.0444C42.0437 24.0444 42.0483 24.0444 42.0517 24.0444C42.0517 24.0444 42.0517 25.7009 42.0517 26.4156C42.0517 27.0532 42.3828 27.5413 42.9918 27.5413C43.7744 27.5413 44.9583 27.5413 44.9583 27.5413V24.0444C44.9583 23.8492 44.9583 23.6773 44.9583 23.497C44.9583 18.6204 44.9583 18.9823 44.9583 17.0352C44.9583 13.2837 42.6939 9.85819 37.3058 9.85819Z" fill="#D63D1A"/>
<path d="M28.1269 26.7798C28.0236 26.7798 27.9214 26.7364 27.8495 26.6519C27.6863 26.4613 27.3301 26.334 26.9191 26.3197C26.4361 26.3037 25.9658 26.4441 25.7426 26.6708C25.6016 26.814 25.3704 26.8163 25.2266 26.6753C25.0827 26.5338 25.081 26.3032 25.222 26.1593C25.5902 25.7843 26.2466 25.5622 26.9442 25.5902C27.5715 25.6119 28.1041 25.8259 28.4044 26.1776C28.5356 26.3311 28.5174 26.5612 28.3638 26.6919C28.2948 26.7513 28.2108 26.7798 28.1269 26.7798Z" fill="#232323"/>
<path d="M35.6733 26.7798C35.5894 26.7798 35.5049 26.7512 35.4364 26.6924C35.2828 26.5617 35.2651 26.3317 35.3958 26.1781C35.6961 25.8265 36.2287 25.6119 36.8566 25.5908C37.5553 25.5599 38.2106 25.7843 38.5788 26.1599C38.7198 26.3037 38.7175 26.5349 38.5736 26.6759C38.4304 26.8175 38.1992 26.8152 38.0582 26.6713C37.8356 26.4447 37.3641 26.3049 36.8823 26.3203C36.4707 26.3345 36.114 26.4618 35.9513 26.6525C35.8788 26.7364 35.776 26.7798 35.6733 26.7798Z" fill="#232323"/>
<path d="M32.0314 34.1514C31.2808 34.1514 30.6329 33.737 30.2835 33.1291C30.3229 34.0641 31.0872 34.8113 32.0314 34.8113C32.9755 34.8113 33.7404 34.0635 33.7798 33.1291C33.4305 33.737 32.782 34.1514 32.0314 34.1514Z" fill="#FF8F78"/>
</g>
</svg>
