<svg width="64" height="64" viewBox="0 0 64 64" fill="none" xmlns="http://www.w3.org/2000/svg">
<mask id="mask0_2_260" style="mask-type:luminance" maskUnits="userSpaceOnUse" x="0" y="0" width="64" height="64">
<path d="M64 31.9997C64 49.6732 49.6728 64 31.9994 64C14.3266 64 0 49.6732 0 31.9997C0 14.3262 14.3266 0 31.9994 0C49.6728 0 64 14.3262 64 31.9997Z" fill="white"/>
</mask>
<g mask="url(#mask0_2_260)">
<path d="M35.0642 9.50036C35.0642 9.50036 34.2279 2.79592 26.0023 2.79592C20.5384 2.79592 15.9284 7.21987 15.9284 12.7141C15.9284 15.9279 15.9284 33.5495 15.9284 33.5495C15.9284 36.1896 15.6572 40.1854 11.7328 40.1854C17.227 40.1854 24.0758 40.2568 24.5039 33.4068C24.5039 29.9818 35.0642 9.50036 35.0642 9.50036Z" fill="#964229"/>
<path d="M32.8163 13.5704C34.5502 13.5704 35.9558 12.1647 35.9558 10.4308C35.9558 8.69687 34.5502 7.29123 32.8163 7.29123C31.0824 7.29123 29.6767 8.69687 29.6767 10.4308C29.6767 12.1647 31.0824 13.5704 32.8163 13.5704Z" fill="#42A894"/>
<path d="M32.0011 41.0257C30.9263 41.0257 22.7183 40.706 22.7183 45.9503C26.1387 45.9503 32.0011 45.9503 32.0011 45.9503C32.0011 45.9503 37.8635 45.9503 41.2828 45.9503C41.2828 40.706 33.0754 41.0257 32.0011 41.0257Z" fill="#357569"/>
<path d="M35.5688 38.7452H28.4323V45.9497H35.5688V38.7452Z" fill="#FED2BC"/>
<path d="M42.8069 45.9503H38.141H35.5688H28.4323H21.1937C19.0411 45.9503 17.2949 47.6959 17.2949 49.8491V64.3259H46.7051V49.8491C46.7051 47.6953 44.9595 45.9503 42.8069 45.9503Z" fill="#42A894"/>
<path d="M42.9439 32.8086C44.5555 32.8086 45.862 31.5021 45.862 29.8905C45.862 28.2789 44.5555 26.9724 42.9439 26.9724C41.3323 26.9724 40.0258 28.2789 40.0258 29.8905C40.0258 31.5021 41.3323 32.8086 42.9439 32.8086Z" fill="#FED2BC"/>
<path d="M23.9753 29.8905C23.9753 31.502 22.6687 32.8086 21.0578 32.8086C19.4458 32.8086 18.1392 31.502 18.1392 29.8905C18.1392 28.279 19.4458 26.9724 21.0578 26.9724C22.6687 26.9718 23.9753 28.2785 23.9753 29.8905Z" fill="#FED2BC"/>
<path d="M44.6975 29.8699C44.6975 30.8318 43.9177 31.611 42.9565 31.611C41.9952 31.611 41.2154 30.8318 41.2154 29.8699C41.2154 28.9081 41.9952 28.1289 42.9565 28.1289C43.9177 28.1289 44.6975 28.9081 44.6975 29.8699Z" fill="#FF8F78"/>
<path d="M32.0131 42.9568C32.0131 42.9568 29.5443 43.1464 28.4403 43.2451C29.0637 44.2235 30.6917 44.8588 32.0131 44.8588C33.3557 44.8588 34.9626 44.2235 35.5859 43.2451C34.4825 43.1464 32.0131 42.9568 32.0131 42.9568Z" fill="#FF8F78"/>
<path d="M22.8103 29.8699C22.8103 30.8318 22.0305 31.611 21.0692 31.611C20.108 31.611 19.3282 30.8318 19.3282 29.8699C19.3282 28.9081 20.108 28.1289 21.0692 28.1289C22.0305 28.1289 22.8103 28.9081 22.8103 29.8699Z" fill="#FF8F78"/>
<path d="M42.9119 21.3274C42.5797 15.582 37.8293 11.0222 32.0011 11.0222C26.173 11.0222 21.4226 15.5814 21.0898 21.3274H21.0578V32.8662H21.059C21.059 32.8805 21.0578 32.8953 21.0578 32.909C21.0578 38.953 25.9572 43.8525 32.0011 43.8525C38.0451 43.8525 42.9445 38.953 42.9445 32.909C42.9445 32.8953 42.9433 32.8805 42.9433 32.8662H42.9445V21.3274H42.9119Z" fill="#FED2BC"/>
<path d="M26.757 29.6165C27.4871 29.6165 28.079 29.0246 28.079 28.2944C28.079 27.5643 27.4871 26.9724 26.757 26.9724C26.0268 26.9724 25.4349 27.5643 25.4349 28.2944C25.4349 29.0246 26.0268 29.6165 26.757 29.6165Z" fill="#232323"/>
<path d="M36.9479 29.6165C37.6781 29.6165 38.27 29.0246 38.27 28.2944C38.27 27.5643 37.6781 26.9724 36.9479 26.9724C36.2178 26.9724 35.6259 27.5643 35.6259 28.2944C35.6259 29.0246 36.2178 29.6165 36.9479 29.6165Z" fill="#232323"/>
<path d="M37.259 9.51178C36.2869 9.51178 35.002 9.51178 34.2428 9.51178V9.50037H30.3024C30.3024 9.50037 30.134 9.50037 29.8651 9.50037C29.1533 9.50037 27.7114 9.50037 26.6462 9.50037C21.2582 9.50037 18.9937 12.9259 18.9937 16.6774C18.9937 18.6245 18.9937 18.2626 18.9937 23.1392C18.9937 23.3191 18.9937 23.4909 18.9937 23.6867V27.183C18.9937 27.183 20.1776 27.183 20.9602 27.183C21.5687 27.183 21.8998 26.6955 21.8998 26.0573C21.8998 25.3427 21.8998 23.6867 21.8998 23.6867C21.9032 23.6867 21.9078 23.6867 21.9112 23.6867C21.9112 19.2182 24.3737 16.6774 27.1097 16.6774H29.8645H30.3018H33.6029V16.6888H36.7949C39.5309 16.6888 41.9923 19.2296 41.9923 23.6981C41.9963 23.6981 42.0003 23.6981 42.0043 23.6981C42.0043 23.6981 42.0043 25.3547 42.0043 26.0693C42.0043 26.7075 42.336 27.195 42.9439 27.195C43.7265 27.195 44.9115 27.195 44.9115 27.195V23.6981C44.9115 23.5029 44.9115 23.3311 44.9115 23.1512C44.9115 18.2741 44.9115 18.636 44.9115 16.6888C44.9121 12.9373 42.6476 9.51178 37.259 9.51178Z" fill="#964229"/>
<path d="M28.0796 26.4335C27.9762 26.4335 27.8741 26.3907 27.8021 26.3056C27.6389 26.1144 27.2821 25.9871 26.8705 25.9729C26.3888 25.9637 25.9173 26.0973 25.6952 26.3239C25.5542 26.4678 25.323 26.4695 25.1792 26.3291C25.0353 26.1881 25.0336 25.9574 25.1746 25.8136C25.5428 25.438 26.2033 25.2171 26.8957 25.2439C27.5236 25.2656 28.0562 25.4802 28.357 25.8319C28.4877 25.9854 28.47 26.2155 28.3165 26.3462C28.2474 26.405 28.1629 26.4335 28.0796 26.4335Z" fill="#232323"/>
<path d="M35.6259 26.4335C35.5426 26.4335 35.4581 26.405 35.3896 26.3468C35.236 26.216 35.2183 25.9854 35.349 25.8324C35.6493 25.4808 36.1819 25.2662 36.8092 25.2445C37.4965 25.2211 38.1627 25.4386 38.5314 25.8136C38.6724 25.9574 38.6707 26.1886 38.5268 26.3296C38.383 26.4706 38.1524 26.4689 38.0108 26.3245C37.7882 26.0979 37.3218 25.9655 36.8343 25.9734C36.4233 25.9877 36.0666 26.1156 35.9039 26.3062C35.8314 26.3907 35.7286 26.4335 35.6259 26.4335Z" fill="#232323"/>
<path d="M32.0011 40.5525C30.0301 40.5525 28.4335 38.9553 28.4335 36.9848H35.5688C35.5688 38.9553 33.9711 40.5525 32.0011 40.5525Z" fill="#AA2618"/>
<path d="M32.0011 45.9503H22.7189L32.0011 51.239L41.2828 45.9503H32.0011Z" fill="#357569"/>
<path d="M32.0006 49.5185C33.9711 49.5185 35.5688 47.9208 35.5688 45.9503H28.4323C28.4323 47.9208 30.0301 49.5185 32.0006 49.5185Z" fill="#FED2BC"/>
<path d="M33.789 58.9162C33.5469 58.9162 33.3512 58.7198 33.3512 58.4783V49.6778C33.3512 49.4363 33.5469 49.24 33.789 49.24C34.0304 49.24 34.2268 49.4363 34.2268 49.6778V58.4783C34.2268 58.7204 34.0304 58.9162 33.789 58.9162Z" fill="#357569"/>
<path d="M30.2321 58.9162C29.9907 58.9162 29.7949 58.7198 29.7949 58.4783V49.6778C29.7949 49.4363 29.9907 49.24 30.2321 49.24C30.4742 49.24 30.6705 49.4363 30.6705 49.6778V58.4783C30.67 58.7204 30.4742 58.9162 30.2321 58.9162Z" fill="#357569"/>
<path d="M25.9549 15.8537C25.2888 17.9943 25.2089 21.9896 28.5551 25.3672C31.3298 25.3672 34.2793 25.3672 34.2793 25.3672L34.6601 20.0876L36.2772 25.3672H40.3683C41.3867 23.7027 41.8907 20.4209 41.0819 16.8053C39.5121 15.473 28.6664 14.7594 25.9549 15.8537Z" fill="#964229"/>
<path d="M32.0086 33.8058C31.2579 33.8058 30.6095 33.3914 30.2601 32.7835C30.2995 33.7185 31.0638 34.4657 32.0086 34.4657C32.9521 34.4657 33.717 33.7179 33.7564 32.7835C33.4071 33.392 32.7586 33.8058 32.0086 33.8058Z" fill="#FF8F78"/>
</g>
</svg>
